<svg width="41" height="40" viewBox="0 0 41 40" fill="none" xmlns="http://www.w3.org/2000/svg">
<path fill-rule="evenodd" clip-rule="evenodd" d="M13.0669 11.4549C13.1593 10.1604 14.2727 9.19402 15.551 9.2875C16.8515 9.38268 17.7618 10.5469 17.6711 11.8169C17.6422 12.2213 17.5137 12.5937 17.3116 12.9118L19.5332 15.1738H22.1609V16.3503H19.0397L16.4508 13.7143C16.0762 13.9166 15.642 14.0176 15.187 13.9843C13.8865 13.8891 12.9762 12.725 13.0669 11.4549ZM15.4651 10.4608C14.8426 10.4153 14.287 10.8861 14.2404 11.5387C14.192 12.2158 14.6726 12.767 15.2728 12.811M15.4651 10.4608C16.0654 10.5048 16.546 11.0559 16.4976 11.7331C16.451 12.3857 15.8953 12.8565 15.2728 12.811" fill="white"/>
<path fill-rule="evenodd" clip-rule="evenodd" d="M12.3715 20.2403C12.4639 18.9458 13.5773 17.9794 14.8556 18.073C15.9363 18.1521 16.7476 18.9694 16.9389 19.9722H22.1609V21.1487H16.8717C16.5529 22.1576 15.5823 22.8496 14.4915 22.7697C13.191 22.6746 12.2807 21.5104 12.3715 20.2403ZM14.7697 19.2463C14.1472 19.2007 13.5916 19.6715 13.5449 20.3242C13.4966 21.0013 13.9771 21.5525 14.5774 21.5964C15.1999 21.6419 15.7556 21.1712 15.8022 20.5185C15.8506 19.8414 15.37 19.2902 14.7697 19.2463Z" fill="white"/>
<path fill-rule="evenodd" clip-rule="evenodd" d="M19.0166 24.5619H22.1377V25.7384H19.5101L17.3372 27.9508C17.583 28.3637 17.7074 28.8557 17.6711 29.3646C17.5786 30.6591 16.4653 31.6255 15.187 31.532C13.8864 31.4369 12.9762 30.2727 13.0669 29.0026C13.1593 27.7081 14.2727 26.7417 15.551 26.8352C15.8995 26.8607 16.22 26.963 16.5007 27.1235L19.0166 24.5619ZM15.4651 28.0086C14.8426 27.963 14.287 28.4338 14.2404 29.0864C14.192 29.7635 14.6726 30.3148 15.2728 30.3587C15.8953 30.4042 16.451 29.9335 16.4976 29.2808M15.4651 28.0086C16.0654 28.0525 16.5459 28.6037 16.4976 29.2808L15.4651 28.0086Z" fill="white"/>
<path d="M18.6143 0.823242C21.0391 0.823242 22.9812 2.83894 22.9814 5.28223V8.56543H25.2354V5.42188C25.2354 5.0971 25.4985 4.83414 25.8232 4.83398C26.1481 4.83398 26.4121 5.097 26.4121 5.42188V8.56543H28.6201V5.42188C28.6201 5.097 28.8831 4.83398 29.208 4.83398C29.5328 4.83404 29.7959 5.09703 29.7959 5.42188V8.56543H31.0391C31.1978 8.56543 31.3502 8.62942 31.4609 8.74316L33.9873 11.3398C34.0942 11.4497 34.1543 11.5968 34.1543 11.75V12.8076H36.5791C36.9039 12.8076 37.1678 13.0708 37.168 13.3955C37.168 13.7204 36.904 13.9844 36.5791 13.9844H34.1543V16.3076H36.5791C36.904 16.3076 37.168 16.5716 37.168 16.8965C37.1678 17.2212 36.9039 17.4844 36.5791 17.4844H34.1543V19.8086H36.5791C36.904 19.8086 37.168 20.0716 37.168 20.3965C37.1679 20.7213 36.9039 20.9844 36.5791 20.9844H34.1543V23.3086H36.5791C36.9039 23.3086 37.1679 23.5717 37.168 23.8965C37.168 24.2214 36.904 24.4854 36.5791 24.4854H34.1543V26.8086H36.5791C36.9038 26.8086 37.1677 27.0718 37.168 27.3965C37.168 27.7214 36.904 27.9854 36.5791 27.9854H34.1543V29.1816C34.1543 29.335 34.0944 29.4829 33.9873 29.5928L31.3213 32.3281C31.2107 32.4415 31.0588 32.5048 30.9004 32.5049H29.7959V35.626C29.7959 35.9508 29.5328 36.2138 29.208 36.2139C28.8831 36.2139 28.6201 35.9508 28.6201 35.626V32.5049H26.4121V35.626C26.4121 35.9508 26.1481 36.2139 25.8232 36.2139C25.4985 36.2137 25.2354 35.9508 25.2354 35.626V32.5049H22.9346V34.6523C22.9346 37.0957 20.9932 39.1121 18.5684 39.1123C16.3111 39.1123 14.472 37.3647 14.2285 35.1523C11.0931 34.6314 8.73068 31.8595 8.73047 28.5332C8.73047 27.8336 8.83562 27.1609 9.03418 26.5283C6.73145 25.4986 5.13774 23.2104 5.1377 20.3965C5.1377 17.5924 6.83853 15.1919 9.23828 14.1934C8.92796 13.4124 8.75391 12.558 8.75391 11.6572C8.75395 8.33072 11.1342 5.56044 14.2539 5.03809C14.3784 2.70622 16.2708 0.823295 18.6143 0.823242ZM18.6143 2C16.9709 2.00005 15.5974 3.29193 15.4395 4.96094C15.7084 5.01508 15.9111 5.25317 15.9111 5.53809C15.9109 5.86276 15.647 6.12598 15.3223 6.12598C12.3674 6.12624 9.93071 8.58613 9.93066 11.6572C9.93066 12.6028 10.1611 13.4846 10.5605 14.2627C10.6404 14.4182 10.6477 14.6019 10.5791 14.7627C10.5105 14.9235 10.3735 15.0456 10.2061 15.0957C7.97252 15.7637 6.31445 17.8773 6.31445 20.3965C6.3145 22.9238 7.84407 24.9041 9.97363 25.6348C10.1276 25.6876 10.2527 25.8026 10.3193 25.9512C10.3858 26.0996 10.3881 26.2689 10.3252 26.4189C10.0544 27.0647 9.90723 27.7759 9.90723 28.5332C9.90747 31.6058 12.3232 34.0645 15.2998 34.0645C15.6245 34.0646 15.8876 34.3276 15.8877 34.6523C15.8877 34.9335 15.6904 35.1684 15.4268 35.2266C15.6922 36.7715 17.009 37.9355 18.5684 37.9355C20.3158 37.9353 21.7578 36.474 21.7578 34.6523V30.7812C21.7578 30.6999 21.7748 30.6222 21.8047 30.5518V5.28223C21.8045 3.46067 20.3617 2 18.6143 2ZM22.9814 9.74219V12.7842H30.2139V16.873H29.0371V13.9609H22.9814V26.8086H29.0371V23.8965H30.2139V27.9854H22.9814V31.3291H25.6592C25.7111 31.3141 25.7664 31.3057 25.8232 31.3057C25.8801 31.3057 25.9353 31.314 25.9873 31.3291H29.0439C29.096 31.314 29.1511 31.3057 29.208 31.3057C29.2649 31.3057 29.3201 31.314 29.3721 31.3291H30.6523L32.9775 28.9424V11.9893L30.791 9.74219H22.9814Z" fill="white"/>
</svg>
