<svg width="41" height="40" viewBox="0 0 41 40" fill="none" xmlns="http://www.w3.org/2000/svg">
<g clip-path="url(#clip0_2356_2223)">
<path d="M20.9404 40.0368C13.8448 40.0368 7.89693 35.2573 6.95778 28.8082C5.32301 28.4153 4.0013 27.2041 3.54912 25.6982C2.05347 25.5018 0.94043 24.3233 0.94043 22.8829V19.4783C0.94043 18.0378 2.08825 16.8593 3.54912 16.6629C3.65347 16.3028 3.82736 15.9427 4.00127 15.6481V15.6153C4.00127 7.00565 11.5839 0 20.9404 0C30.2969 0 37.8795 7.00565 37.8795 15.6153V15.6481C38.0882 15.9754 38.2274 16.3028 38.3317 16.6629C39.8274 16.8593 40.9404 18.0706 40.9404 19.4783V22.9156C40.9404 24.356 39.7926 25.5345 38.3317 25.7309C37.8796 27.2368 36.5926 28.4481 34.923 28.8409C33.9491 35.2245 27.9665 40.0368 20.9404 40.0368ZM11.9317 28.7754C12.5926 34.5698 16.3839 38.8583 20.9404 38.8583C25.4622 38.8583 29.2534 34.5698 29.9143 28.7754C27.6882 28.5136 25.4622 27.8916 23.3752 26.9422C23.3752 28.1862 22.2622 29.201 20.9404 29.201C19.5839 29.201 18.5056 28.1862 18.5056 26.9422C18.5056 26.9095 18.5056 26.8767 18.5056 26.8767C16.3491 27.8588 14.1578 28.4808 11.9317 28.7754ZM8.24478 28.9719C8.90563 32.6056 11.3404 35.6501 14.6448 37.3852C12.5578 35.3882 11.0969 32.3765 10.7143 28.9392C10.1926 28.9719 9.67088 29.0046 9.11433 29.0046H8.24478V28.9719ZM31.1665 28.9392C30.7839 32.3765 29.323 35.3555 27.2708 37.3524C30.5752 35.6174 32.9752 32.6056 33.6361 29.0046H32.523C32.1056 28.9719 31.6187 28.9719 31.1665 28.9392ZM19.4795 26.4839C19.6187 26.5821 19.723 26.7785 19.723 26.975C19.723 27.5642 20.2796 28.0552 20.9404 28.0552C21.6013 28.0552 22.1578 27.5642 22.1578 26.975C22.1578 26.8112 22.2274 26.6476 22.3665 26.5494C21.4274 26.222 20.3839 26.222 19.4795 26.4839ZM20.8361 25.1089C21.7752 25.1089 22.6447 25.3054 23.4795 25.6982C26.3665 27.0731 29.497 27.7934 32.5578 27.7934H33.7404C35.6534 27.7934 37.2535 26.3529 37.2535 24.5852V17.8087C37.2535 16.0409 35.6882 14.6005 33.7404 14.6005H8.14043C6.22738 14.6005 4.62738 16.0409 4.62738 17.8087V24.5852C4.62738 26.3529 6.19258 27.7934 8.14043 27.7934H9.11433C12.21 27.7934 15.2361 27.1059 18.1926 25.6982C18.9926 25.3054 19.8969 25.1089 20.8361 25.1089ZM3.37521 17.9069C2.67956 18.136 2.15782 18.7581 2.15782 19.4783V22.9156C2.15782 23.6358 2.67956 24.2578 3.37521 24.487V17.9069ZM38.5056 17.9069V24.4542C39.2013 24.2251 39.723 23.6031 39.723 22.8829V19.4783C39.6883 18.7908 39.2013 18.1688 38.5056 17.9069ZM8.14043 13.422H33.7404C34.7839 13.422 35.7578 13.7494 36.5578 14.2731C35.8274 6.94014 29.1143 1.14578 20.9404 1.14578C12.7665 1.14578 6.05348 6.90739 5.32303 14.2731C6.12303 13.7494 7.09693 13.422 8.14043 13.422Z" fill="white"/>
</g>
<defs>
<clipPath id="clip0_2356_2223">
<rect width="40" height="40" fill="white" transform="translate(0.94043)"/>
</clipPath>
</defs>
</svg>
