<svg width="128" height="130" viewBox="0 0 128 130" fill="none" xmlns="http://www.w3.org/2000/svg">
<path d="M47.2519 123.088C47.2888 122.969 47.3215 122.854 47.342 122.74C47.5591 121.609 47.0103 120.647 46.5844 120.106C45.5647 120.393 44.5327 120.885 43.558 121.527C43.2181 121.749 42.8823 121.99 42.5588 122.248C41.8585 122.801 41.2032 123.428 40.6094 124.103C39.643 125.201 38.8526 126.43 38.3366 127.691C38.0253 128.457 37.8124 129.231 37.7305 129.996C38.4389 129.489 38.9754 128.825 39.5037 128.15C40.0074 127.511 40.507 126.86 41.1459 126.327C41.7561 125.819 42.4318 125.398 43.1362 125.025C44.2501 124.435 45.4254 123.96 46.5025 123.456C46.7605 123.334 47.0103 123.211 47.256 123.084L47.2519 123.088Z" fill="white"/>
<path d="M41.7494 121.953C41.4176 121.83 41.0818 121.695 40.7419 121.56C40.3652 121.682 39.9679 121.809 39.5461 121.945C38.7803 122.19 38.0022 122.44 37.2773 122.686C38.1373 123.079 39.0055 123.456 39.886 123.812C40.4512 123.144 41.0777 122.518 41.7494 121.953Z" fill="white"/>
<path d="M41.2214 120.639C41.4384 120.565 41.6514 120.496 41.8561 120.422C41.8848 120.365 41.9216 120.303 41.9749 120.234C42.9004 118.899 42.3353 117.461 41.979 116.802C40.4678 117.019 38.8666 117.473 38.1868 117.703C37.5643 117.912 36.9623 118.157 36.3808 118.436C35.9917 118.624 35.615 118.829 35.2464 119.042C34.4765 119.492 33.7516 120.008 33.0759 120.573C31.9784 121.495 31.0119 122.56 30.1888 123.743C29.1772 125.205 28.3827 126.843 27.834 128.608C29.1568 127.241 30.4345 125.865 31.9006 124.685C32.564 124.153 33.2643 123.653 34.0342 123.223C34.6034 122.904 35.4102 122.576 36.3316 122.248C37.3718 121.876 38.5594 121.503 39.702 121.135C40.2221 120.967 40.734 120.803 41.2214 120.639Z" fill="white"/>
<path d="M32.6568 118.141C32.8124 118.059 32.968 117.981 33.1278 117.907C33.5537 117.707 33.9959 117.539 34.4464 117.391C35.7897 116.949 37.2025 116.699 38.4966 116.384C38.5212 116.339 38.5499 116.29 38.5949 116.228C39.6024 114.938 38.7505 113.411 38.6154 113.186C36.4449 113.497 34.1352 114.582 32.2473 116.101C31.936 116.351 31.6371 116.613 31.3504 116.888C30.7771 117.436 30.2611 118.026 29.8229 118.649C29.2782 119.419 28.8482 120.229 28.582 121.061C29.4912 120.651 30.2201 119.996 30.9737 119.361C31.5019 118.915 32.0384 118.477 32.6568 118.141Z" fill="white"/>
<path d="M33.0006 118.78C32.5133 119.042 32.0751 119.382 31.6328 119.75C31.8867 119.902 32.1447 120.049 32.4027 120.197C33.058 119.627 33.7542 119.107 34.4913 118.649C34.307 118.55 34.1227 118.452 33.9343 118.35C33.6149 118.477 33.2996 118.62 32.9965 118.784L33.0006 118.78Z" fill="white"/>
<path d="M37.1738 111.793C38.8815 109.635 41.0275 107.616 43.3986 106.224C44.5821 105.528 45.9336 105.171 47.2932 105.061C47.715 105.028 50.381 105.13 49.8077 104.147C49.7299 104.012 49.5743 103.885 49.3408 103.787C48.874 103.59 48.3375 103.668 47.8461 103.64C45.8271 103.529 44.8975 101.432 44.3078 99.7696C43.7426 98.1848 43.4928 96.4934 43.3781 94.8185C43.2921 93.5899 43.288 92.3531 43.3454 91.1245C43.3659 90.7109 43.2758 89.9574 43.46 89.5684C39.7948 97.2633 44.9261 104.156 44.9261 104.156L44.9589 104.147C42.5918 104.926 39.0126 106.887 37.1779 111.797L37.1738 111.793Z" fill="white"/>
<path d="M68.7605 52.8008C67.7899 52.8008 66.9381 53.2922 66.4344 54.0416C66.1314 54.488 65.9512 55.0327 65.9512 55.6142V58.6283H65.9635C66.074 60.078 67.278 61.2206 68.7564 61.2206C70.0546 61.2206 71.1399 60.3401 71.4593 59.1443C71.5043 58.9805 71.533 58.8085 71.5494 58.6324H71.5617V58.616V55.606C71.5617 54.058 70.3085 52.8049 68.7605 52.8049V52.8008Z" fill="white"/>
<path d="M47.7686 125.34C48.1208 124.886 48.5221 124.431 48.9562 123.997C48.518 123.919 48.0675 123.825 47.613 123.723C46.9946 124.046 46.3352 124.337 45.6554 124.64C45.1394 124.869 44.6193 125.099 44.1074 125.348C45.1026 125.672 46.1141 125.971 47.1297 126.249C47.3509 125.901 47.5761 125.594 47.7686 125.34Z" fill="white"/>
<path d="M63.8426 0.791016C28.5866 0.791016 0.00585938 29.3718 0.00585938 64.6278C0.00585938 87.1189 11.6364 106.891 29.2132 118.259C29.6473 117.645 30.1469 117.059 30.7039 116.506C30.9864 116.228 31.2854 115.958 31.5966 115.696C31.269 115.487 30.9455 115.278 30.622 115.065C30.5728 115.032 30.5278 115.003 30.4786 114.971C30.1715 114.766 29.8643 114.561 29.5613 114.348C29.504 114.311 29.4507 114.27 29.3934 114.229C29.0903 114.017 28.7873 113.804 28.4883 113.591C28.4433 113.558 28.4023 113.529 28.3573 113.496C26.6782 112.276 25.0688 110.974 23.5249 109.59C23.5249 109.59 23.5167 109.585 23.5167 109.581C23.23 109.323 22.9434 109.061 22.6608 108.795C22.6239 108.758 22.583 108.721 22.5461 108.689C22.2758 108.435 22.0055 108.177 21.7394 107.919C21.6943 107.878 21.6534 107.833 21.6083 107.792C21.338 107.53 21.0718 107.263 20.8097 106.993C20.7811 106.965 20.7524 106.936 20.7278 106.907C19.9989 106.166 19.2904 105.404 18.6024 104.626C17.9144 103.848 17.2428 103.049 16.5957 102.234C16.35 101.923 16.1043 101.612 15.8668 101.297C15.8422 101.264 15.8135 101.227 15.789 101.194C15.5555 100.887 15.3262 100.58 15.101 100.273C15.0723 100.236 15.0477 100.199 15.019 100.162C14.7897 99.8469 14.5604 99.5275 14.3351 99.204C14.327 99.1917 14.3147 99.1753 14.3065 99.163C13.4096 97.8771 12.566 96.5544 11.7715 95.1988C11.2924 94.3839 10.8255 93.5648 10.3873 92.7294C10.375 92.7007 10.3587 92.6762 10.3464 92.6475C10.1621 92.2953 9.97779 91.939 9.8017 91.5786C9.78941 91.55 9.77303 91.5254 9.76075 91.4967C8.63046 89.2239 7.63941 86.8732 6.79579 84.4488C6.77121 84.1785 6.75074 83.9123 6.73845 83.642C8.21684 81.9384 9.98189 80.2471 11.9845 78.6663C17.8939 74.0018 24.2416 71.5733 28.3982 72.0115C28.3982 72.0115 33.9842 72.8879 45.7375 80.8818C45.7375 80.8818 51.9623 84.4119 61.451 87.123C61.451 87.123 64.9156 87.2868 69.3139 97.4021C73.7122 107.517 71.1281 114.225 71.1281 114.225C71.1281 114.225 67.4342 123.755 55.4719 124.439C55.173 124.455 54.8699 124.468 54.5628 124.472C53.928 124.898 53.3015 125.283 52.6954 125.651C51.9255 126.122 51.1965 126.568 50.5085 127.06C54.8167 127.977 59.2805 128.465 63.8631 128.465C99.1191 128.465 127.7 99.8838 127.7 64.6278C127.7 29.3718 99.1191 0.791016 63.8631 0.791016H63.8426ZM51.1269 80.3126C42.7193 75.8611 33.3207 70.6396 33.3207 70.6396C33.3207 70.6396 30.6711 69.0261 26.928 69.0097C22.7714 68.5715 16.4237 71 10.5184 75.6645C8.62227 77.1593 6.94731 78.7523 5.51807 80.3658C5.39111 79.8908 5.26826 79.4117 5.15359 78.9325V78.9243C5.03483 78.4452 4.92425 77.966 4.82187 77.4828V77.4746C4.71949 76.9913 4.61711 76.5081 4.52702 76.0208C4.52702 76.0208 4.52702 76.0167 4.52702 76.0126C4.43283 75.5253 4.34683 75.0338 4.26492 74.5424C4.26492 74.5424 4.26492 74.5424 4.26492 74.5383C4.18302 74.0469 4.1093 73.5513 4.03968 73.0517C3.83082 71.557 3.6793 70.0458 3.58101 68.5183C3.54825 64.2838 4.09702 59.3859 5.90302 54.4347C5.90302 54.4347 5.9235 54.3815 5.95626 54.3119C6.30026 53.5378 8.5936 48.9471 15.0272 47.3376C15.0272 47.3376 16.694 46.9936 19.0119 46.3998C24.0736 45.1016 32.2273 42.6076 32.903 39.8966C32.9153 39.8515 32.9358 39.8024 32.944 39.7573C32.944 39.7573 32.944 43.8239 32.3379 46.0231C31.7604 48.1198 36.9696 53.5542 37.4569 54.0538C37.289 53.2798 35.4175 44.5938 36.2611 43.3325C37.1416 42.0138 41.1017 36.4566 45.6679 34.2574C45.6679 34.2574 45.6802 34.2656 45.6843 34.2697C45.6843 34.2697 45.6925 34.2697 45.6966 34.2656C45.6966 34.2656 49.8164 37.2347 52.7855 37.894C55.7545 38.5533 61.193 40.2037 67.1844 42.7305C73.1757 45.2573 80.8133 50.3681 80.8133 50.3681C80.8133 50.3681 81.6529 51.1872 82.5825 52.5181C82.6071 52.555 82.6357 52.5959 82.6603 52.6328C82.7258 52.727 82.7914 52.8212 82.8528 52.9195C83.3237 53.632 83.7947 54.4675 84.1755 55.3848C84.4745 56.1056 84.7653 56.6421 85.0315 57.0393C85.8341 58.2351 86.4197 58.1737 86.4197 58.1737C86.4197 58.1737 96.8053 63.7801 97.7964 64.55H97.7882C97.7882 64.55 97.8086 64.5664 97.8168 64.5705H92.7551L94.5529 70.2956L94.9911 65.9751L99.6065 65.8646L99.6269 65.8727C99.6024 65.6844 99.0782 63.3255 87.8572 57.6904C87.8572 57.6904 86.26 56.6461 84.9987 53.9515C83.7333 51.2568 81.4235 46.1951 75.0431 41.5756C68.6627 36.9562 65.5258 31.8944 49.3536 26.9433C49.3536 26.9433 45.93 26.4396 41.761 25.9154C40.1147 25.7516 35.0571 25.5796 28.9798 28.4954C23.0744 31.6405 17.2141 35.5146 11.62 39.6836C10.7887 40.302 9.96141 40.9286 9.14236 41.5633C9.55598 40.4044 10.0106 39.2127 10.4979 38.025C11.4357 37.3616 12.353 36.7187 13.2458 36.1085C24.7698 28.2251 32.2601 24.9079 32.2601 24.9079C32.2601 24.9079 35.6059 24.5353 40.1188 24.4452C45.4304 24.3387 52.3636 24.6131 57.3885 26.3413C66.6847 29.5315 78.8968 40.2569 82.9142 45.761L87.9186 55.4995L100.79 64.3575L101.339 69.4192L88.2462 79.1536C88.2462 79.1536 82.4187 78.9898 74.5026 73.879C74.6049 74.2352 75.6697 77.192 83.4507 80.4396L83.4097 80.4559L73.1184 84.4529C73.1184 84.4529 59.5426 84.7846 51.1351 80.3331L51.1269 80.3126ZM63.8426 126.151C62.6141 126.151 61.3896 126.114 60.161 126.04C69.8708 123.518 73.1102 115.45 73.2658 115.057C73.3846 114.745 76.1366 107.341 71.4147 96.4847C68.9085 90.7186 66.5496 87.7905 64.7354 86.308C68.1754 86.6889 71.0626 86.7503 72.4754 86.7503C72.9218 86.7503 73.1716 86.7421 73.1716 86.7421C73.4378 86.7339 73.704 86.6807 73.9538 86.5865L84.2575 82.5855C84.9414 82.3316 85.4492 81.7746 85.658 81.103C87.1774 81.4101 88.0824 81.4429 88.1766 81.447C88.1971 81.447 88.2217 81.447 88.2421 81.447C88.7377 81.447 89.2209 81.2873 89.6222 80.9883L102.715 71.2539C103.374 70.7666 103.722 69.9639 103.632 69.1489L103.083 64.0872C103.01 63.4197 102.649 62.8136 102.096 62.4327L89.7041 53.9064L84.9659 44.688C84.9127 44.5815 84.8472 44.4792 84.7775 44.3809C80.3711 38.3445 67.7986 27.4552 58.1379 24.138C54.1942 22.7866 48.7967 22.0986 42.0968 22.0986C41.4007 22.0986 40.7249 22.1068 40.0697 22.1191C35.4994 22.2133 32.1413 22.5818 32.0021 22.5982C31.7686 22.6228 31.5393 22.6883 31.3222 22.7825C31.0069 22.9218 23.5085 26.2758 11.9394 34.1878C11.1327 34.7406 10.3013 35.3222 9.4536 35.9201C19.7859 16.4185 40.2867 3.09664 63.8508 3.09664C97.7759 3.09664 125.378 30.6986 125.378 64.6196C125.378 98.5406 97.7759 126.147 63.8508 126.147L63.8426 126.151Z" fill="white"/>
<path d="M53.6871 124.168C53.6871 124.168 53.7117 124.152 53.7198 124.148C54.1376 123.23 53.8017 122.362 53.4905 121.854C52.5773 122.092 51.5248 122.723 50.5215 123.55C50.2921 123.738 50.0669 123.939 49.8457 124.148C49.0922 124.856 48.4001 125.659 47.8677 126.453C47.0855 127.621 46.6473 128.771 46.8603 129.603C47.6794 128.452 48.5844 127.596 49.5427 126.859C50.6935 125.978 51.9261 125.274 53.212 124.467C53.3677 124.369 53.5233 124.271 53.6789 124.168H53.6871Z" fill="white"/>
</svg>
