<svg width="136" height="24" viewBox="0 0 136 24" fill="none" xmlns="http://www.w3.org/2000/svg">
<path d="M71.0126 0.034862C71.3594 0.034862 71.6718 0.347282 71.7065 0.728782V3.67628C71.7065 4.05778 71.3941 4.3702 71.0126 4.3702H60.4344V23.3061C60.4344 23.6875 60.1227 23.9998 59.7413 24H56.793C56.4115 24 56.0991 23.6876 56.0991 23.3061V4.3702H45.5218C45.1403 4.3702 44.8279 4.05778 44.8279 3.67628V0.728782C44.8279 0.347282 45.1403 0.034862 45.5218 0.034862H71.0126Z" fill="white"/>
<path d="M102.816 9.85018C103.197 9.85018 103.51 10.1624 103.51 10.5092V13.4567C103.51 13.8382 103.197 14.1507 102.816 14.1507H80.9316V19.6655H102.816C103.197 19.6655 103.51 19.9772 103.51 20.3586V23.272C103.51 23.6535 103.197 23.966 102.816 23.966H77.3251C76.9436 23.966 76.6312 23.6535 76.6311 23.272V10.5441C76.6311 10.1626 76.9436 9.85018 77.3251 9.85018H102.816Z" fill="white"/>
<path d="M39.1395 8.63582C39.521 8.63582 39.8335 8.94824 39.8335 9.32974V23.2712C39.8335 23.6527 39.521 23.9651 39.1395 23.9651H36.0186C35.6371 23.9651 35.3246 23.6527 35.3246 23.2712V9.32974C35.3246 8.94824 35.6371 8.63582 36.0186 8.63582H39.1395Z" fill="white"/>
<path d="M133.613 0.381822C133.578 2.53195 131.81 4.30048 129.66 4.30048H115.198C114.261 4.30048 113.394 4.78605 112.874 5.58373C112.353 6.38135 112.284 7.38721 112.7 8.28886C113.116 9.25995 114.088 9.84935 115.198 9.84935H127.995C130.596 9.84946 132.99 11.2718 134.238 13.5954C134.758 14.601 135.07 15.7455 135.07 16.8898C135.07 20.0459 132.954 22.8209 129.937 23.6879C129.625 23.7572 129.348 23.8267 129.07 23.8614L128.932 23.8954C128.619 23.9301 128.341 23.9651 128.029 23.9651H110.515C109.891 23.9651 109.371 23.4448 109.371 22.8205V20.8093C109.371 20.185 109.891 19.6647 110.515 19.6647H127.995C128.932 19.6645 129.798 19.179 130.319 18.3814C130.839 17.5838 130.908 16.578 130.492 15.6763C130.076 14.74 129.105 14.1499 127.995 14.1498H115.198C112.597 14.1498 110.203 12.7282 108.955 10.4046C108.4 9.36427 108.122 8.21975 108.122 7.07533C108.122 3.91928 110.238 1.14428 113.255 0.277236C113.567 0.207911 113.845 0.138446 114.122 0.103756L114.295 0.069724C114.573 0.0350422 114.886 0 115.198 0H133.613V0.381822Z" fill="white"/>
<path fill-rule="evenodd" clip-rule="evenodd" d="M24.1572 0.034862C28.2148 0.034862 30.3309 3.29473 30.3311 6.52002C30.3311 8.04602 29.845 9.50281 28.9432 10.5433C28.3884 11.2021 27.7298 11.6879 26.9669 12C29.2558 12.9018 30.2962 15.2604 30.2962 17.48C30.2962 19.11 29.7408 20.7051 28.7698 21.8842C27.6599 23.2021 26.0647 23.9303 24.1572 23.9303H1.09431C0.712878 23.9303 0.4005 23.6186 0.400391 23.2372V10.5084C0.400586 10.1271 0.71293 9.81531 1.09431 9.81531H23.2906C24.7818 9.81518 26.0306 8.60122 26.0306 7.07533C26.0306 5.58409 24.8165 4.33547 23.2906 4.33534H4.35391C2.20384 4.33523 0.435431 2.56674 0.435253 0.416684V0.034862H24.1572ZM4.73573 19.6298H23.2906C24.7818 19.6297 26.0306 18.4157 26.0306 16.8898C26.0304 15.3988 24.7817 14.1508 23.2906 14.1507H4.73573V19.6298Z" fill="white"/>
<path d="M39.1395 0.034862C39.521 0.034862 39.8335 0.347282 39.8335 0.728782V3.67628C39.8335 4.05778 39.521 4.3702 39.1395 4.3702H36.0186C35.6371 4.3702 35.3246 4.05778 35.3246 3.67628V0.728782C35.3246 0.347282 35.6371 0.034862 36.0186 0.034862H39.1395Z" fill="white"/>
<path d="M102.816 0.034862C103.197 0.034862 103.51 0.347282 103.51 0.728782V3.67628C103.51 4.05778 103.197 4.3702 102.816 4.3702H77.3251C76.9436 4.3702 76.6311 4.05778 76.6311 3.67628V0.728782C76.6311 0.347282 76.9436 0.034862 77.3251 0.034862H102.816Z" fill="white"/>
</svg>
