<svg width="184" height="183" viewBox="0 0 184 183" fill="none" xmlns="http://www.w3.org/2000/svg">
<path d="M98.2202 169.691L98.479 182.194L90.6401 182.354L90.6079 180.728L96.5581 180.605L96.48 176.796L90.939 176.911L90.9067 175.293L96.4478 175.179L96.3696 171.35L90.3452 171.473L90.313 169.851L98.2251 169.687L98.2202 169.691Z" fill="white"/>
<path d="M107.329 179.487L111.178 178.898L111.423 180.502L101.857 181.973L101.612 180.367L105.469 179.774L103.819 169.02L105.678 168.733L107.329 179.487Z" fill="white"/>
<path d="M81.147 169.101C81.7489 168.97 82.3919 168.946 83.0757 169.028C84.1484 169.159 85.078 169.527 85.856 170.141C86.6339 170.751 87.2071 171.566 87.5757 172.577C87.9443 173.589 88.0467 174.757 87.8911 176.079C87.7314 177.406 87.3512 178.516 86.7534 179.408C86.1555 180.301 85.4015 180.953 84.5005 181.366C83.5996 181.776 82.6124 181.915 81.5396 181.788C80.8803 181.711 80.2779 181.542 79.7251 181.284C79.1765 181.026 78.6931 180.69 78.2837 180.273C77.8702 179.855 77.5466 179.372 77.3091 178.815C77.0717 178.258 76.9411 177.644 76.9165 176.964L76.9204 176.951L78.812 177.181C78.8366 177.595 78.9265 177.968 79.0903 178.295C79.25 178.627 79.4631 178.918 79.7251 179.163C79.9872 179.413 80.2866 179.613 80.6265 179.765C80.9663 179.916 81.3348 180.015 81.7319 180.064C82.4486 180.15 83.1083 180.048 83.7144 179.757C84.3204 179.466 84.8283 178.991 85.2378 178.336C85.6473 177.681 85.913 176.849 86.0317 175.85C86.1546 174.838 86.0937 173.966 85.8521 173.233C85.6104 172.5 85.2297 171.918 84.7056 171.496C84.1814 171.075 83.5664 170.817 82.8579 170.735C82.4651 170.686 82.0885 170.698 81.7202 170.759C81.3516 170.82 81.015 170.944 80.6997 171.12C80.3887 171.296 80.1148 171.526 79.8774 171.804C79.64 172.082 79.4593 172.418 79.3364 172.807L77.4448 172.574C77.6209 171.976 77.8829 171.439 78.231 170.96C78.579 170.485 79.005 170.088 79.5005 169.773C79.996 169.457 80.545 169.232 81.147 169.101Z" fill="white"/>
<path d="M68.3335 165.96L66.8433 171.206L72.8384 172.909L74.3296 167.663L76.1431 168.18L72.7241 180.207L70.9097 179.692L72.396 174.466L66.4009 172.762L64.9146 177.988L63.0923 177.472L66.5112 165.444L68.3335 165.96Z" fill="white"/>
<path d="M128.28 175.161L120.941 177.922L120.368 176.403L125.941 174.306L124.598 170.739L119.41 172.693L118.84 171.177L124.029 169.224L122.681 165.64L117.042 167.762L116.469 166.242L123.877 163.457L128.28 175.161Z" fill="white"/>
<path d="M56.7964 161.119L58.689 172.116L58.7954 172.164L62.6655 163.851L64.3774 164.646L59.0981 175.981L57.5181 175.243L55.6255 164.232L55.519 164.183L51.6411 172.508L49.9497 171.718L49.9458 171.722L55.2241 160.386L56.7964 161.119Z" fill="white"/>
<path fill-rule="evenodd" clip-rule="evenodd" d="M133.947 158.211L139.955 169.179L136.044 171.321C135.197 171.787 134.41 172.025 133.685 172.041C132.96 172.058 132.321 171.881 131.76 171.517C131.199 171.152 130.732 170.637 130.364 169.961C129.995 169.29 129.815 168.622 129.815 167.962C129.815 167.303 130.02 166.672 130.429 166.082C130.504 165.974 130.589 165.87 130.678 165.766L125.827 162.663L127.71 161.631L132.207 164.559C132.242 164.539 132.277 164.518 132.313 164.498L134.559 163.267L132.285 159.113L133.939 158.207L133.947 158.211ZM133.243 165.841C132.706 166.136 132.313 166.452 132.059 166.787C131.805 167.127 131.682 167.484 131.682 167.865C131.682 168.241 131.802 168.639 132.027 169.048C132.252 169.462 132.531 169.776 132.854 169.993C133.178 170.21 133.554 170.309 133.98 170.284C134.406 170.264 134.893 170.1 135.438 169.801L137.514 168.662L135.339 164.691L133.243 165.841Z" fill="white"/>
<path fill-rule="evenodd" clip-rule="evenodd" d="M46.1567 155.198C47.1478 155.251 48.0902 155.578 48.9829 156.18C49.8797 156.79 50.5312 157.544 50.9448 158.445C51.3584 159.346 51.497 160.333 51.3618 161.402C51.2267 162.47 50.7849 163.556 50.0396 164.658C49.2902 165.763 48.4423 166.574 47.5005 167.094C46.5586 167.614 45.5921 167.847 44.6011 167.794C43.6101 167.741 42.6678 167.414 41.771 166.808C40.8782 166.202 40.2276 165.447 39.814 164.542C39.4005 163.641 39.2609 162.655 39.396 161.586C39.5143 160.651 39.867 159.703 40.4556 158.74L40.7183 158.334C41.4676 157.229 42.3155 156.418 43.2573 155.898C44.1991 155.378 45.1658 155.144 46.1567 155.198ZM46.1157 156.971C45.4443 156.951 44.777 157.134 44.1138 157.532C43.4503 157.925 42.8315 158.544 42.2622 159.383V159.387C41.6891 160.23 41.3451 161.029 41.2222 161.79C41.1034 162.552 41.1736 163.24 41.4439 163.859C41.71 164.477 42.1401 164.985 42.7339 165.386C43.3317 165.791 43.9619 166.004 44.6333 166.021C45.3049 166.041 45.9689 165.853 46.6323 165.46C47.2957 165.067 47.9137 164.448 48.4829 163.605C49.052 162.761 49.4 161.963 49.523 161.201C49.6417 160.44 49.5723 159.751 49.3062 159.137C49.04 158.523 48.61 158.011 48.0122 157.606C47.4184 157.204 46.7873 156.991 46.1157 156.971Z" fill="white"/>
<path fill-rule="evenodd" clip-rule="evenodd" d="M148.636 163.065L146.904 164.388L135.741 157.176L137.333 155.959L140.25 157.896L144.132 154.934L143.035 151.61L144.627 150.394L148.636 163.065ZM141.647 158.824L146.351 161.95L146.429 161.889L144.659 156.528L141.647 158.824Z" fill="white"/>
<path d="M42.7983 151.839H42.7944L34.3911 161.099L32.9946 159.829L40.3042 151.774L36.1108 147.965L37.2046 146.761L42.7983 151.839Z" fill="white"/>
<path d="M164.825 147.285L163.478 148.743L154.718 143.952L154.64 144.038L160.026 152.479L158.691 153.92L149.861 149.195L149.784 149.281L155.243 157.647L153.891 159.109L147.077 148.064L148.367 146.671L157.028 151.107L157.093 151.033L152.011 142.741L153.305 141.344L153.292 141.335L164.825 147.285Z" fill="white"/>
<path fill-rule="evenodd" clip-rule="evenodd" d="M27.5728 139.943C28.6208 139.701 29.6157 139.738 30.5532 140.053C31.4951 140.372 32.3102 140.943 33.0064 141.77C33.7025 142.597 34.1292 143.502 34.2808 144.485C34.4322 145.467 34.2971 146.455 33.8794 147.446C33.4617 148.437 32.7408 149.362 31.7212 150.218C30.7015 151.078 29.6651 151.631 28.6167 151.872C27.5683 152.114 26.5731 152.077 25.6353 151.762C24.6935 151.443 23.8744 150.869 23.1782 150.042C22.4861 149.215 22.0602 148.313 21.9087 147.33C21.7573 146.348 21.8884 145.365 22.3101 144.374C22.7319 143.383 23.4484 142.457 24.4722 141.597H24.4683C25.492 140.737 26.5245 140.184 27.5728 139.943ZM30.0337 141.753C29.3908 141.553 28.6988 141.549 27.9536 141.749C27.2084 141.946 26.4464 142.375 25.6685 143.031L25.6724 143.027C24.8943 143.682 24.3416 144.358 24.0181 145.058C23.6945 145.758 23.5754 146.442 23.6655 147.11C23.7556 147.777 24.03 148.383 24.4927 148.932C24.9554 149.485 25.5083 149.861 26.147 150.062C26.7858 150.262 27.4779 150.262 28.2232 150.062C28.9684 149.865 29.7303 149.436 30.5083 148.781C31.2864 148.125 31.8401 147.45 32.1636 146.749C32.4871 146.049 32.6052 145.365 32.5151 144.701C32.4291 144.038 32.1507 143.428 31.688 142.879C31.2253 142.33 30.6766 141.954 30.0337 141.753Z" fill="white"/>
<path d="M168.507 138.533L170.596 135.245H170.6L171.972 136.117L166.78 144.283L165.408 143.411L167.5 140.118L158.319 134.279L159.326 132.694L168.507 138.533Z" fill="white"/>
<path d="M21.2222 128.731C22.1148 128.718 22.9379 128.939 23.7036 129.398C24.4653 129.856 25.1044 130.516 25.6245 131.384C26.206 132.355 26.4923 133.342 26.48 134.341C26.4718 135.34 26.1775 136.291 25.6001 137.192C25.0228 138.092 24.1666 138.882 23.0366 139.558C22.1808 140.07 21.3411 140.41 20.5181 140.582C19.6949 140.75 18.9163 140.763 18.1792 140.619C17.4462 140.472 16.7744 140.185 16.1724 139.751C15.5704 139.317 15.0586 138.752 14.645 138.06C14.297 137.478 14.0591 136.889 13.9321 136.283C13.8052 135.681 13.7771 135.087 13.8589 134.505C13.9367 133.924 14.1168 133.375 14.3911 132.859C14.6696 132.343 15.0425 131.88 15.5093 131.479L16.5015 133.136C16.2448 133.426 16.0411 133.732 15.8901 134.05C15.7386 134.369 15.6399 134.701 15.603 135.045C15.5621 135.385 15.5866 135.734 15.6685 136.09C15.7545 136.446 15.9028 136.802 16.1157 137.158C16.4761 137.764 16.9591 138.215 17.561 138.514C18.163 138.813 18.847 138.924 19.6128 138.846C20.3786 138.768 21.198 138.473 22.062 137.953C22.9302 137.433 23.5811 136.851 24.0151 136.208C24.4451 135.565 24.6706 134.906 24.687 134.226C24.7033 133.546 24.5226 132.895 24.146 132.265C23.7979 131.683 23.372 131.245 22.8765 130.95C22.381 130.66 21.8406 130.52 21.2632 130.54C20.7115 130.56 20.1524 130.733 19.5894 131.056L21.1733 133.706L19.8374 134.505L17.3149 130.286L18.5357 129.558C19.4366 129.017 20.3335 128.743 21.2222 128.731Z" fill="white"/>
<path d="M16.5044 133.141L16.5015 133.136L16.5044 133.133V133.141Z" fill="white"/>
<path d="M176.919 125.744L173.708 132.805L172.23 132.133L174.659 126.792L171.19 125.216L168.991 130.052L167.516 129.381L169.715 124.544L164.752 122.288L165.535 120.572V120.568L176.919 125.744Z" fill="white"/>
<path d="M22.0493 125.044L10.6851 130.266L9.89893 128.55L21.2632 123.328L22.0493 125.044Z" fill="white"/>
<path d="M20.2134 121.097L8.41553 125.241L5.81495 117.845L7.3462 117.305L9.31983 122.919L12.9155 121.658L11.0767 116.428L12.605 115.892L14.4429 121.121L18.0552 119.852L16.0571 114.168L17.5884 113.631L20.2134 121.097Z" fill="white"/>
<path fill-rule="evenodd" clip-rule="evenodd" d="M172.126 108.79C173.183 108.581 174.355 108.655 175.636 109.015C176.922 109.375 177.959 109.92 178.753 110.649C179.544 111.378 180.071 112.222 180.337 113.176C180.604 114.134 180.592 115.134 180.301 116.174C180.011 117.214 179.502 118.07 178.778 118.749C178.053 119.429 177.164 119.871 176.108 120.084C175.051 120.297 173.884 120.22 172.598 119.86L172.589 119.856C171.303 119.495 170.268 118.95 169.473 118.221C168.683 117.492 168.154 116.649 167.888 115.695C167.622 114.736 167.635 113.741 167.925 112.7C168.22 111.656 168.728 110.796 169.453 110.12C170.177 109.441 171.07 108.999 172.126 108.79ZM175.121 110.817C174.142 110.542 173.27 110.469 172.512 110.596C171.75 110.723 171.119 111.01 170.62 111.456C170.12 111.903 169.772 112.475 169.58 113.167C169.387 113.855 169.387 114.523 169.58 115.17C169.772 115.813 170.161 116.387 170.743 116.895C171.328 117.398 172.107 117.787 173.089 118.062L173.093 118.058C174.072 118.332 174.944 118.405 175.702 118.279C176.463 118.152 177.095 117.865 177.594 117.414C178.094 116.964 178.442 116.394 178.634 115.706C178.827 115.014 178.831 114.347 178.634 113.704C178.442 113.062 178.053 112.488 177.467 111.985C176.882 111.481 176.103 111.091 175.121 110.817Z" fill="white"/>
<path d="M11.8472 103.699C12.5393 103.556 13.195 103.605 13.8052 103.851C14.4153 104.097 14.9475 104.523 15.398 105.137C15.8484 105.747 16.176 106.533 16.3726 107.488C16.565 108.405 16.5817 109.228 16.4302 109.957C16.2787 110.686 15.9756 111.296 15.5171 111.787C15.0585 112.279 14.4688 112.619 13.7358 112.812L13.3501 110.956C13.784 110.829 14.1243 110.608 14.3618 110.293C14.6034 109.978 14.7506 109.609 14.812 109.183C14.8734 108.757 14.8537 108.306 14.7554 107.831C14.6489 107.307 14.4682 106.861 14.2144 106.489C13.9646 106.116 13.6658 105.841 13.3218 105.665C12.9737 105.493 12.605 105.448 12.2036 105.53C11.8392 105.603 11.5648 105.772 11.3765 106.022C11.1882 106.276 11.0529 106.591 10.9751 106.972C10.8974 107.353 10.8444 107.774 10.8198 108.237L10.7251 109.765C10.6636 110.801 10.4301 111.656 10.0288 112.336C9.62753 113.016 9.0056 113.446 8.14991 113.622C7.44564 113.77 6.7901 113.704 6.18409 113.43C5.57799 113.156 5.06135 112.725 4.63135 112.131C4.20153 111.537 3.90292 110.833 3.73096 110.01C3.559 109.183 3.55075 108.417 3.71045 107.721C3.87017 107.025 4.16524 106.439 4.59522 105.968C5.02927 105.497 5.57 105.182 6.2251 105.031L6.59327 106.812L6.61377 106.82C6.06092 107 5.67555 107.357 5.4585 107.885C5.24158 108.413 5.20466 109.028 5.35206 109.728C5.45441 110.231 5.62654 110.649 5.85987 110.981C6.09324 111.316 6.36788 111.554 6.68311 111.698C6.99841 111.841 7.33036 111.877 7.67432 111.808C7.96508 111.746 8.20312 111.628 8.38331 111.444C8.5634 111.259 8.70613 111.046 8.8003 110.788C8.89449 110.534 8.96461 110.268 9.00147 109.99C9.04238 109.711 9.06652 109.445 9.07471 109.196L9.13624 107.934C9.14852 107.524 9.19812 107.095 9.27588 106.653C9.35369 106.206 9.48849 105.784 9.68506 105.374C9.87754 104.969 10.1524 104.617 10.5005 104.318C10.8485 104.019 11.2987 103.814 11.8472 103.699Z" fill="white"/>
<path d="M174.432 96.4192L174.215 98.2991C173.761 98.2827 173.372 98.3846 173.044 98.6096C172.717 98.8308 172.458 99.1388 172.27 99.5237C172.082 99.9085 171.959 100.342 171.902 100.825C171.84 101.354 171.869 101.837 171.988 102.271C172.107 102.705 172.303 103.058 172.578 103.332C172.852 103.606 173.192 103.766 173.597 103.811C173.966 103.852 174.277 103.782 174.535 103.602C174.793 103.422 175.022 103.164 175.214 102.828C175.411 102.493 175.591 102.107 175.759 101.677L176.329 100.256C176.714 99.2939 177.205 98.5526 177.794 98.0325C178.384 97.5125 179.117 97.3035 179.981 97.4016C180.698 97.4835 181.3 97.75 181.788 98.2005C182.275 98.6509 182.631 99.2242 182.852 99.9202C183.073 100.616 183.135 101.383 183.041 102.218C182.942 103.058 182.709 103.787 182.34 104.397C181.972 105.007 181.505 105.469 180.948 105.781C180.391 106.092 179.777 106.219 179.105 106.158L179.314 104.352L179.327 104.339C179.908 104.339 180.383 104.126 180.755 103.693C181.128 103.259 181.353 102.688 181.435 101.976C181.496 101.468 181.464 101.018 181.349 100.625C181.23 100.236 181.046 99.9202 180.792 99.6868C180.539 99.4493 180.235 99.3147 179.883 99.2737C179.588 99.241 179.326 99.2821 179.092 99.3968C178.863 99.5114 178.663 99.6752 178.491 99.888C178.319 100.101 178.171 100.33 178.048 100.584C177.922 100.838 177.815 101.079 177.725 101.317L177.27 102.492C177.127 102.877 176.947 103.27 176.734 103.667C176.521 104.065 176.259 104.426 175.944 104.749C175.633 105.073 175.263 105.322 174.837 105.498C174.412 105.67 173.92 105.728 173.364 105.662C172.659 105.58 172.057 105.326 171.553 104.905C171.05 104.479 170.677 103.905 170.444 103.185C170.206 102.464 170.145 101.616 170.259 100.646C170.366 99.7162 170.607 98.9295 170.98 98.2825C171.353 97.6355 171.836 97.1517 172.421 96.8323C173.011 96.5088 173.683 96.3742 174.432 96.4192Z" fill="white"/>
<path fill-rule="evenodd" clip-rule="evenodd" d="M11.8149 80.3411C12.4536 80.3902 13.0105 80.5865 13.4937 80.9221C13.9769 81.2579 14.3417 81.7497 14.5874 82.3968C14.8331 83.0437 14.9191 83.8464 14.8413 84.8128L14.4683 89.5921L14.4565 89.596L1.99073 88.6175L2.34717 84.0511C2.41681 83.1667 2.62081 82.4458 2.95655 81.8889C3.29236 81.332 3.71887 80.9268 4.23487 80.677C4.75081 80.4273 5.31579 80.3283 5.93409 80.3733C6.45418 80.4143 6.88422 80.5459 7.22413 80.763C7.56392 80.98 7.8258 81.2583 8.01417 81.594C8.20249 81.9297 8.33028 82.2901 8.39991 82.679L8.52198 82.6878C8.57522 82.2742 8.7396 81.8809 9.01807 81.5042C9.29655 81.1274 9.6692 80.828 10.1401 80.6028C10.611 80.3777 11.168 80.292 11.8149 80.3411ZM11.5689 82.2044C11.1758 82.1717 10.8073 82.2453 10.4634 82.4173C10.1195 82.5892 9.83703 82.8513 9.61182 83.2034C9.38658 83.5556 9.25531 83.9819 9.21436 84.4856L8.99756 87.2659L12.9907 87.5774V87.5852L13.2036 84.8704C13.2732 83.9694 13.15 83.3096 12.8306 82.8919C12.5112 82.4743 12.0929 82.2453 11.5689 82.2044ZM5.93018 82.2327C5.4143 82.1918 4.96802 82.3396 4.59131 82.6712C4.21455 83.007 3.99747 83.5438 3.93604 84.2932L3.73487 86.8606L7.52686 87.1595H7.53174L7.72803 84.6409C7.76077 84.2191 7.711 83.8298 7.57178 83.4817C7.43667 83.1298 7.22797 82.8436 6.94971 82.6184C6.67126 82.3932 6.33147 82.2655 5.93018 82.2327Z" fill="white"/>
<path d="M183.503 87.5315L181.885 87.6751L181.366 81.7454L177.569 82.0813L178.057 87.6057L176.443 87.7493L175.956 82.2239L172.143 82.5598L172.671 88.5638L171.054 88.7073L170.362 80.8235L170.358 80.8196L182.815 79.722L183.503 87.5315Z" fill="white"/>
<path d="M16.0532 76.1888L15.7046 78.0432L3.41065 75.7503L3.75928 73.8948V73.8909L16.0532 76.1888Z" fill="white"/>
<path d="M173.588 66.3343C174.886 66.019 176.058 65.986 177.106 66.2317C178.154 66.4815 179.027 66.9531 179.727 67.6575C180.427 68.3578 180.907 69.2342 181.161 70.2825C181.316 70.9253 181.373 71.5517 181.324 72.1536C181.275 72.7597 181.128 73.3251 180.886 73.8616C180.641 74.394 180.3 74.8687 179.862 75.2864C179.424 75.7041 178.892 76.04 178.265 76.302L177.814 74.4514C178.191 74.2836 178.506 74.0662 178.76 73.8001C179.014 73.534 179.211 73.2352 179.354 72.9036C179.493 72.572 179.58 72.2195 179.6 71.847C179.625 71.4743 179.588 71.0932 179.494 70.7083C179.322 70.008 178.993 69.4261 178.51 68.9593C178.027 68.4926 177.401 68.1852 176.643 68.0296C175.886 67.8781 175.017 67.9191 174.035 68.1565C173.044 68.3981 172.249 68.7592 171.647 69.2425C171.045 69.7256 170.635 70.2863 170.422 70.9251C170.209 71.5638 170.185 72.2273 170.357 72.9192C170.451 73.3041 170.59 73.6565 170.779 73.9759C170.967 74.2952 171.201 74.5737 171.475 74.803C171.749 75.0323 172.061 75.2134 172.405 75.3362C172.749 75.459 173.125 75.5119 173.531 75.4915L173.973 77.3421C173.351 77.3871 172.757 77.3298 172.188 77.1702C171.619 77.0105 171.098 76.7528 170.631 76.4007C170.164 76.0485 169.759 75.6141 169.423 75.094C169.088 74.578 168.838 73.9842 168.678 73.3167C168.424 72.2643 168.445 71.2653 168.744 70.3235C169.043 69.3816 169.603 68.558 170.422 67.8577C171.241 67.1574 172.298 66.6496 173.588 66.3343Z" fill="white"/>
<path d="M0.490728 73.4075C0.744634 73.2232 1.01539 73.1619 1.30616 73.2151C1.60094 73.2684 1.83457 73.4287 2.00245 73.6907C2.17012 73.9527 2.22689 74.2391 2.16553 74.5501C2.1082 74.8613 1.95264 75.1111 1.69874 75.2913C1.44489 75.4755 1.17497 75.5369 0.884283 75.4837C0.589462 75.4304 0.355894 75.2711 0.187994 75.0091C0.0200884 74.747 -0.0374976 74.46 0.0239312 74.1487C0.0812846 73.8376 0.236926 73.5877 0.490728 73.4075Z" fill="white"/>
<path d="M8.79151 61.3177L7.67432 65.0569L18.0962 68.1819L17.5562 69.9837L7.13331 66.8587L6.01514 70.5891L4.45948 70.1223L7.23585 60.8509L8.79151 61.3177Z" fill="white"/>
<path fill-rule="evenodd" clip-rule="evenodd" d="M177.038 57.8528L167.209 66.7971L166.444 64.9466L169.062 62.6243L167.192 58.1106L163.696 58.3206L162.93 56.469L176.203 55.8382L177.038 57.8528ZM168.868 58.01L170.318 61.51L174.544 57.763L174.507 57.6731L168.868 58.01Z" fill="white"/>
<path d="M13.5581 50.5276L11.0562 55.929L14.5122 57.5305L16.8423 52.4973L18.313 53.177L15.9829 58.2102L19.4556 59.8196L21.9858 54.3479L23.4605 55.0315L20.1382 62.2063L8.79151 56.9563L12.0835 49.843L13.5581 50.5276Z" fill="white"/>
<path fill-rule="evenodd" clip-rule="evenodd" d="M171.394 46.2512C171.885 47.0908 172.134 47.8778 172.151 48.6067C172.167 49.3355 171.991 49.995 171.619 50.5764C171.25 51.1578 170.734 51.6408 170.071 52.0257C169.407 52.4147 168.728 52.6238 168.04 52.6565C167.348 52.6893 166.688 52.5176 166.057 52.1409C165.427 51.7641 164.87 51.1578 164.378 50.3225L163.086 48.1057L159.289 50.3186L158.338 48.6887L158.342 48.6927L169.15 42.3977L171.394 46.2512ZM164.467 47.3011L165.672 49.3684C165.984 49.9007 166.324 50.2772 166.701 50.4983C167.077 50.7235 167.471 50.8182 167.884 50.7854C168.294 50.7526 168.703 50.6167 169.113 50.3792C169.522 50.1417 169.838 49.8557 170.063 49.5159C170.288 49.1761 170.395 48.7868 170.382 48.3528C170.37 47.9187 170.202 47.4266 169.886 46.886L168.695 44.8391L164.467 47.3011Z" fill="white"/>
<path d="M19.9194 39.888C20.5582 39.8553 21.1645 40.0143 21.7378 40.3665L20.7505 41.8938V41.886C20.2305 41.6281 19.7062 41.6072 19.1821 41.8323C18.6579 42.0534 18.1991 42.4676 17.8101 43.0696C17.5316 43.4996 17.3592 43.9173 17.2896 44.3186C17.22 44.7197 17.2489 45.0841 17.3716 45.4075C17.4944 45.731 17.7035 45.9894 18.0024 46.1819C18.2522 46.3416 18.5062 46.4231 18.7642 46.4231C19.0222 46.4231 19.2722 46.3659 19.522 46.2512C19.7717 46.1366 20.005 45.9933 20.2261 45.8255C20.4472 45.6576 20.6522 45.4857 20.8364 45.3137L21.7661 44.4622C22.0651 44.1796 22.3966 43.9088 22.7651 43.6468C23.1336 43.3847 23.5269 43.1803 23.9526 43.0247C24.3745 42.8732 24.8172 42.8113 25.2759 42.844C25.7345 42.8768 26.2015 43.0447 26.6724 43.3518C27.2661 43.7368 27.6964 44.2323 27.9585 44.8343C28.2205 45.4402 28.2983 46.1161 28.1919 46.8694C28.0854 47.6229 27.7653 48.4056 27.2329 49.2288C26.7251 50.015 26.16 50.6131 25.5376 51.0266C24.9153 51.4401 24.2725 51.6612 23.6011 51.6858C22.9337 51.7145 22.2699 51.5388 21.6148 51.1663L22.6421 49.5764C23.0393 49.7894 23.4374 49.8719 23.8306 49.8186C24.2235 49.7653 24.5875 49.605 24.9273 49.343C25.2671 49.081 25.5704 48.7496 25.8325 48.3401C26.1233 47.8938 26.308 47.4474 26.394 47.0052C26.48 46.563 26.4592 46.1576 26.3364 45.7932C26.2136 45.4288 25.9802 45.1335 25.6362 44.9124C25.3251 44.7118 25.0138 44.6338 24.7026 44.6829C24.3914 44.732 24.072 44.8635 23.7485 45.0764C23.425 45.2935 23.0925 45.5552 22.7485 45.8665L21.6108 46.886C20.8369 47.5781 20.0708 48.025 19.3091 48.2298C18.5474 48.4345 17.8018 48.2995 17.0689 47.8245C16.4628 47.4313 16.0408 46.9272 15.8032 46.3089C15.5657 45.6906 15.5003 45.019 15.6108 44.2942C15.7214 43.5736 16.0039 42.8568 16.4624 42.1526C16.9211 41.44 17.4542 40.895 18.0562 40.51C18.6581 40.1252 19.2807 39.9207 19.9194 39.888Z" fill="white"/>
<path d="M160.329 33.1927C160.992 33.164 161.647 33.3198 162.298 33.6555C162.949 33.9914 163.536 34.4864 164.056 35.1458C164.584 35.8091 164.932 36.4849 165.104 37.1809C165.276 37.873 165.272 38.5284 165.104 39.1468C164.932 39.761 164.588 40.2851 164.072 40.7151L162.942 39.2903L162.929 39.2942C163.343 38.8848 163.527 38.3936 163.482 37.8245C163.437 37.2552 163.196 36.6893 162.75 36.1282C162.43 35.727 162.09 35.4281 161.734 35.2356C161.378 35.0432 161.021 34.9529 160.677 34.9651C160.329 34.9774 160.018 35.0927 159.744 35.3137C159.51 35.498 159.354 35.7148 159.272 35.9563C159.19 36.202 159.166 36.4565 159.195 36.7268C159.224 36.997 159.284 37.2635 159.375 37.5296C159.465 37.7957 159.563 38.0454 159.666 38.2747L160.177 39.429C160.349 39.8017 160.501 40.2039 160.632 40.638C160.763 41.0719 160.833 41.5099 160.841 41.9602C160.85 42.4107 160.768 42.849 160.587 43.2708C160.411 43.6967 160.1 44.0819 159.662 44.43C159.105 44.8722 158.503 45.1177 157.843 45.1751C157.188 45.2324 156.52 45.0894 155.84 44.7454C155.161 44.4014 154.518 43.8481 153.912 43.0823C153.33 42.3493 152.941 41.6243 152.749 40.9036C152.556 40.183 152.552 39.5034 152.741 38.8606C152.929 38.2177 153.305 37.6434 153.871 37.1438L155.05 38.6262C154.719 38.9375 154.518 39.286 154.444 39.6751C154.37 40.064 154.403 40.4612 154.542 40.8665C154.682 41.2719 154.903 41.6653 155.202 42.0462C155.533 42.4637 155.894 42.783 156.287 43.0042C156.68 43.2253 157.07 43.3362 157.455 43.3362C157.843 43.3361 158.195 43.209 158.51 42.9553C158.801 42.7261 158.974 42.4559 159.027 42.1448C159.08 41.8336 159.06 41.4892 158.958 41.1165C158.855 40.7438 158.711 40.3422 158.527 39.9163L157.925 38.5081C157.516 37.5541 157.335 36.6859 157.388 35.8997C157.437 35.1136 157.806 34.45 158.486 33.9095C159.051 33.4632 159.665 33.2214 160.329 33.1927Z" fill="white"/>
<path fill-rule="evenodd" clip-rule="evenodd" d="M31.2827 25.8206C32.2615 25.5585 33.2401 25.5914 34.2271 25.9231C35.214 26.2548 36.1644 26.8807 37.0776 27.802C37.995 28.7276 38.6137 29.6905 38.9331 30.6897C39.2525 31.6889 39.2723 32.6802 38.9897 33.6712C38.7071 34.658 38.1133 35.5998 37.2124 36.4925V36.4886L34.3335 39.3343L25.5415 30.4436L28.5103 27.5081C29.3825 26.6481 30.304 26.0827 31.2827 25.8206ZM33.6704 27.6595C32.9703 27.3933 32.2741 27.3476 31.5903 27.5276C30.9064 27.7078 30.2345 28.1181 29.5874 28.761L28.0396 30.2884L34.5142 36.8362H34.5181L35.98 35.3909C36.6557 34.7193 37.0942 34.0355 37.2866 33.3352C37.4832 32.6349 37.4499 31.9304 37.1919 31.222C36.9339 30.5136 36.4553 29.809 35.7593 29.1048C35.0714 28.4086 34.3747 27.9257 33.6704 27.6595Z" fill="white"/>
<path fill-rule="evenodd" clip-rule="evenodd" d="M148.568 23.4456C149.575 23.0688 150.567 22.9787 151.542 23.1712C152.516 23.3637 153.4 23.8261 154.199 24.5589C154.993 25.2878 155.53 26.1281 155.808 27.0823C156.086 28.0364 156.078 29.0317 155.792 30.0677C155.505 31.1036 154.907 32.1152 154.006 33.0979C153.106 34.0806 152.147 34.7602 151.14 35.137C150.133 35.5138 149.141 35.6039 148.167 35.4114C147.192 35.2189 146.308 34.7564 145.513 34.0276C144.715 33.2946 144.177 32.4545 143.899 31.5003C143.621 30.5462 143.629 29.5508 143.916 28.5149C144.206 27.4789 144.801 26.4674 145.702 25.4846C146.603 24.502 147.561 23.8223 148.568 23.4456ZM151.242 24.9241C150.582 24.8054 149.895 24.8951 149.182 25.1858C148.47 25.4807 147.77 26.0009 147.082 26.7503C146.394 27.4996 145.935 28.2448 145.706 28.9778C145.476 29.7149 145.448 30.407 145.62 31.054C145.792 31.701 146.144 32.2707 146.676 32.7581C147.204 33.2412 147.798 33.5446 148.461 33.6634C149.121 33.7821 149.813 33.6955 150.526 33.4007C151.238 33.1058 151.939 32.5855 152.626 31.8362V31.8323C153.314 31.083 153.773 30.3377 154.002 29.6048C154.232 28.8678 154.26 28.1755 154.084 27.5286C153.908 26.8815 153.556 26.3116 153.028 25.8284C152.495 25.3411 151.901 25.0388 151.242 24.9241Z" fill="white"/>
<path d="M43.5562 30.6409H43.5513L43.5542 30.638L43.5562 30.6409Z" fill="white"/>
<path d="M43.4575 17.2327L38.6538 20.7464L40.9019 23.8225L45.3784 20.5501L46.3325 21.8567L41.856 25.1282L44.1167 28.2161L48.978 24.6575L49.936 25.968L43.5542 30.638L36.1724 20.5501L42.4995 15.9221L43.4575 17.2327Z" fill="white"/>
<path fill-rule="evenodd" clip-rule="evenodd" d="M143.036 16.0208C143.842 16.5572 144.424 17.1383 144.772 17.7688C145.124 18.3995 145.267 19.0508 145.206 19.7141C145.144 20.3817 144.903 21.0331 144.481 21.6761C144.059 22.3149 143.555 22.7859 142.965 23.093C142.38 23.4001 141.729 23.5101 141.016 23.4241C140.887 23.4085 140.757 23.3832 140.625 23.3528L140.144 29.1009L138.35 27.9134L138.844 22.5637C138.808 22.5408 138.771 22.5192 138.735 22.4954L136.602 21.0813L133.993 25.0257L132.42 23.9856H132.417L139.317 13.5589L143.036 16.0208ZM137.499 19.7259L139.493 21.0452C140 21.381 140.464 21.5861 140.881 21.6516C141.299 21.7171 141.676 21.6597 142.007 21.4837C142.339 21.3076 142.638 21.0204 142.896 20.6272C143.158 20.2342 143.305 19.8413 143.346 19.4524C143.387 19.0634 143.298 18.6862 143.081 18.3177C142.864 17.9491 142.49 17.5972 141.974 17.2532L140 15.9466L137.499 19.7259Z" fill="white"/>
<path d="M53.9165 11.2542L48.7612 14.0511L50.5796 17.4007L55.2476 14.8655L56.0181 16.2874L51.3491 18.8216L53.9497 23.6136L52.2905 24.5139L46.3286 13.5227L53.1431 9.82449L53.9165 11.2542Z" fill="white"/>
<path d="M135.319 11.3108L134.623 12.7776L129.246 10.222L127.612 13.6614L132.62 16.0413L131.924 17.5032L126.916 15.1233L125.273 18.5803L130.715 21.1682L130.02 22.6341L122.874 19.2395H122.87L128.238 7.94461L135.319 11.3108Z" fill="white"/>
<path d="M64.9741 6.79031L59.4087 8.89969L60.7603 12.4622L65.9448 10.4964L66.5181 12.0081L61.3335 13.9729L62.689 17.553L68.3247 15.4192L68.898 16.9387L61.4976 19.7434V19.7395L57.0669 8.04715L64.397 5.27078L64.9741 6.79031Z" fill="white"/>
<path fill-rule="evenodd" clip-rule="evenodd" d="M120.35 5.09793L121.001 18.3704L119.084 17.7854L118.959 14.2864L114.286 12.8596L112.225 15.6887V15.6927L110.309 15.1067L118.266 4.46316L120.35 5.09793ZM115.275 11.5012L118.898 12.6077L118.696 6.96512L118.602 6.9368L115.275 11.5012Z" fill="white"/>
<path d="M81.3472 14.0052L79.6519 14.3655L71.5269 6.72L71.4126 6.74441L73.3208 15.7132L71.478 16.1067L68.8735 3.87429L70.5806 3.50906L78.7144 11.1673L78.8286 11.1428L76.9165 2.16238L78.7427 1.77273L81.3472 14.0052Z" fill="white"/>
<path d="M104.546 1.5032L104.411 3.12039L98.4771 2.61648L98.1538 6.41336L103.678 6.88015L103.542 8.49344L98.0181 8.02664L97.6948 11.8391L103.699 12.347L103.563 13.9651L95.6802 13.2971L95.6763 13.3011L96.7329 0.839139L104.546 1.5032Z" fill="white"/>
<path d="M87.8999 0.778592C88.7475 0.733573 89.5012 0.83976 90.1646 1.10183C90.8279 1.36393 91.36 1.74504 91.7612 2.24051C92.1624 2.74001 92.3925 3.32105 92.4458 3.99246L90.6274 4.09109L90.6226 4.10769C90.5243 3.53436 90.2339 3.09982 89.7466 2.80496C89.2594 2.51021 88.6574 2.38321 87.9409 2.4241C87.4292 2.45276 86.9909 2.55554 86.6265 2.73562C86.262 2.9158 85.9828 3.15309 85.7944 3.43972C85.602 3.73049 85.5202 4.05023 85.5366 4.40652C85.553 4.70137 85.6349 4.95548 85.7905 5.16433C85.9461 5.37315 86.139 5.54112 86.3765 5.67215C86.6139 5.80313 86.868 5.90961 87.1382 5.99148C87.4083 6.07332 87.6661 6.13883 87.9116 6.18387L89.1489 6.43387C89.5502 6.51167 89.9682 6.61752 90.3941 6.76492C90.8199 6.90825 91.2207 7.10988 91.5933 7.35965C91.9659 7.61352 92.2734 7.9324 92.5191 8.32547C92.7607 8.71452 92.8996 9.1902 92.9282 9.75125C92.965 10.4595 92.8184 11.0943 92.4868 11.6634C92.151 12.2326 91.6506 12.6909 90.979 13.0471C90.3075 13.4034 89.4847 13.6042 88.5103 13.6575C87.5765 13.7066 86.7572 13.604 86.061 13.346C85.3609 13.088 84.8037 12.6954 84.3901 12.1673C83.9724 11.6431 83.7269 11.0036 83.645 10.2542L85.5327 10.1526C85.5942 10.6029 85.7623 10.9676 86.0366 11.2542C86.3109 11.5406 86.6548 11.7407 87.064 11.8636C87.4776 11.9864 87.9245 12.0358 88.4077 12.0071C88.9398 11.9784 89.4107 11.8684 89.8159 11.6761C90.2212 11.4836 90.537 11.2295 90.7622 10.9143C90.9875 10.599 91.0854 10.2379 91.0649 9.8284C91.0444 9.45993 90.9218 9.16101 90.7007 8.93582C90.4796 8.71067 90.1851 8.52992 89.8208 8.3948C89.4564 8.25969 89.0466 8.14523 88.5962 8.05105L87.0972 7.72781C86.0816 7.51076 85.2701 7.15009 84.6558 6.65457C84.0458 6.15907 83.7147 5.47491 83.6655 4.60281C83.6287 3.88233 83.7878 3.24359 84.148 2.6868C84.5083 2.12986 85.0164 1.68276 85.6675 1.34695C86.3186 1.01114 87.0604 0.82364 87.8999 0.778592Z" fill="white"/>
</svg>
