<svg width="39" height="34" viewBox="0 0 39 34" fill="none" xmlns="http://www.w3.org/2000/svg">
<path fill-rule="evenodd" clip-rule="evenodd" d="M34.646 4.93239H34.8405C36.0727 4.93239 37.1428 3.95959 37.2401 2.7274C37.2725 2.07888 37.0779 1.46278 36.6563 0.976386C36.2348 0.489996 35.6512 0.198169 35.0027 0.133318C34.3866 0.0684659 33.738 0.263016 33.2516 0.68455C32.7652 1.10609 32.4734 1.68975 32.4086 2.33827C32.3861 2.78782 32.4727 3.22179 32.6684 3.60778L26.215 9.113C25.8908 8.91846 25.534 8.78877 25.1449 8.75634C24.3343 8.69145 23.6209 8.98331 23.1345 9.53456L16.8579 5.78684C16.9004 5.63473 16.9274 5.47702 16.9418 5.3193C17.0066 4.67078 16.812 4.05469 16.3905 3.56829C15.9689 3.08189 15.3853 2.79008 14.7368 2.72523C14.1207 2.66038 13.4722 2.85492 12.9858 3.27648C12.4994 3.69798 12.2075 4.28165 12.1427 4.93017C12.1027 5.22989 12.1366 5.54192 12.2292 5.83592L6.046 9.69667C5.59203 9.30759 5.00836 9.08058 4.42469 9.08058C3.06279 9.08058 1.99274 10.1182 1.99274 11.4801C1.99274 12.842 3.09522 13.9121 4.42469 13.9121C5.75415 13.9121 6.82422 12.842 6.85664 11.5125C6.85664 11.2207 6.79179 10.9289 6.69452 10.6695L12.841 6.84301C13.2398 7.23674 13.7762 7.47667 14.3477 7.52429H14.5422C15.2078 7.52429 15.8359 7.26191 16.2698 6.8084L22.5833 10.5722C22.5509 10.7019 22.5184 10.8316 22.5184 10.9613C22.4212 12.2907 23.394 13.4581 24.7234 13.5554H24.918C26.1826 13.5554 27.2202 12.5826 27.3175 11.318C27.3499 10.8316 27.2526 10.3452 26.9932 9.92369L33.4183 4.47762C33.7742 4.73199 34.1943 4.88723 34.646 4.93239ZM34.0299 1.56006C34.2569 1.36551 34.5487 1.26823 34.8405 1.26823H34.9378C35.2621 1.26823 35.5539 1.43035 35.7809 1.68975C36.0079 1.94919 36.1051 2.27342 36.0727 2.5977C36.0079 3.27865 35.3917 3.76504 34.7108 3.73262C34.3866 3.73262 34.0947 3.57046 33.8677 3.31107C33.6408 3.05168 33.5434 2.7274 33.5759 2.40316C33.6083 2.07888 33.7705 1.78702 34.0299 1.56006ZM13.504 5.74072C13.5419 5.80133 13.5673 5.86724 13.5804 5.93516C13.792 6.19798 14.1185 6.36216 14.4449 6.38937C14.9322 6.41982 15.3337 6.22145 15.5956 5.84795C15.6085 5.81158 15.6247 5.77568 15.6441 5.74072C15.6628 5.70711 15.684 5.67652 15.7075 5.64894C15.7585 5.5265 15.7827 5.39947 15.8069 5.25445C15.8393 4.93017 15.742 4.60593 15.515 4.34655C15.288 4.08711 14.9962 3.92499 14.6719 3.92499C14.3801 3.92499 14.0234 3.98984 13.764 4.2168C13.5046 4.44382 13.3425 4.73563 13.31 5.05991C13.285 5.23492 13.3179 5.42923 13.3937 5.61307C13.4342 5.64924 13.4714 5.69179 13.504 5.74072ZM3.16009 11.5125C3.16009 10.7992 3.74374 10.2479 4.42469 10.2479C4.81382 10.2479 5.2029 10.4425 5.46233 10.7992C5.62445 10.9937 5.6893 11.2531 5.6893 11.5125C5.6893 12.2259 5.10563 12.7771 4.42469 12.7771C3.71132 12.7771 3.16009 12.1935 3.16009 11.5125ZM23.6858 11.0261C23.6858 10.864 23.7506 10.7019 23.8155 10.5722C24.0424 10.1182 24.5289 9.85884 25.0477 9.92369C25.3395 9.95611 25.6314 10.0858 25.8259 10.2803C26.0853 10.5398 26.215 10.8964 26.1826 11.2531C26.1177 11.9341 25.5016 12.4205 24.8207 12.3881C24.1397 12.3232 23.6209 11.7071 23.6858 11.0261Z" fill="white"/>
<path fill-rule="evenodd" clip-rule="evenodd" d="M21.6754 33.2056H27.7066C28.0309 33.2056 28.2903 32.9462 28.2903 32.6219V24.2884C28.2903 22.3104 26.669 20.6891 24.691 20.6891C22.713 20.6891 21.0917 22.3104 21.0917 24.2884V32.6219C21.0917 32.9462 21.3511 33.2056 21.6754 33.2056ZM27.1229 32.0706H22.259V24.3208C22.259 22.9914 23.3615 21.8889 24.691 21.8889C26.0205 21.8889 27.1229 22.9914 27.1229 24.3208V32.0706Z" fill="white"/>
<path fill-rule="evenodd" clip-rule="evenodd" d="M1.37665 33.2056H7.40789C7.73217 33.2056 7.99156 32.9462 7.99156 32.6219V24.2884C7.99156 22.3104 6.37024 20.6891 4.39226 20.6891C2.41428 20.6891 0.792969 22.3104 0.792969 24.2884V32.6219C0.792969 32.9462 1.05239 33.2056 1.37665 33.2056ZM6.85664 32.0706H1.99274V24.3208C1.99274 22.9914 3.09522 21.8889 4.42469 21.8889C5.75415 21.8889 6.85664 22.9914 6.85664 24.3208V32.0706Z" fill="white"/>
<path fill-rule="evenodd" clip-rule="evenodd" d="M31.2415 32.626C31.2415 32.9502 31.5009 33.2096 31.8251 33.2096H37.8564C38.1482 33.2096 38.4076 32.9502 38.4401 32.626V14.4998C38.4401 12.5218 36.8187 10.9005 34.8408 10.9005C32.8627 10.9005 31.2415 12.5218 31.2415 14.4998V32.626ZM37.2727 14.5322V32.0747H32.4088V14.5322C32.4088 13.2028 33.5113 12.1003 34.8408 12.1003C36.1702 12.1003 37.2727 13.2028 37.2727 14.5322Z" fill="white"/>
<path fill-rule="evenodd" clip-rule="evenodd" d="M11.5264 33.2096H17.5577C17.8819 33.2096 18.1413 32.9502 18.1413 32.626V17.256C18.1413 15.2781 16.5201 13.6567 14.542 13.6567C12.5641 13.6567 10.9428 15.2781 10.9428 17.256V32.626C10.9428 32.9502 11.2022 33.2096 11.5264 33.2096ZM17.0064 32.0747H12.1425V17.256C12.1425 15.9266 13.245 14.8241 14.5745 14.8241C15.9039 14.8241 17.0064 15.9266 17.0064 17.256V32.0747Z" fill="white"/>
</svg>
