<svg width="45" height="45" viewBox="0 0 45 45" fill="none" xmlns="http://www.w3.org/2000/svg">
<path d="M22.959 16.7871C26.2727 16.7871 28.959 19.4734 28.959 22.7871C28.959 26.1008 26.2727 28.7871 22.959 28.7871C19.6454 28.7869 16.959 26.1007 16.959 22.7871C16.959 19.4735 19.6454 16.7873 22.959 16.7871Z" fill="white"/>
<path fill-rule="evenodd" clip-rule="evenodd" d="M22.959 0.787109C35.1092 0.787109 44.959 10.6368 44.959 22.7871C44.959 34.9374 35.1092 44.7871 22.959 44.7871C10.8089 44.7869 0.958984 34.9373 0.958984 22.7871C0.958984 10.637 10.8089 0.787307 22.959 0.787109ZM22.959 1.78711C11.3612 1.78731 1.95898 11.1893 1.95898 22.7871C1.95898 34.385 11.3612 43.7869 22.959 43.7871C34.557 43.7871 43.959 34.3851 43.959 22.7871C43.959 11.1891 34.557 1.78711 22.959 1.78711Z" fill="white"/>
</svg>
