<svg width="161" height="161" viewBox="0 0 161 161" fill="none" xmlns="http://www.w3.org/2000/svg">
<path d="M6.18905 67.3837C6.44838 67.1324 6.76136 66.9435 7.10436 66.831C7.45606 66.7202 7.82773 66.6879 8.19326 66.7362C8.64028 66.7988 9.06105 66.9847 9.40842 67.2732C9.75583 67.5892 10.012 67.9927 10.1501 68.4418C10.2956 68.982 10.3278 69.5466 10.2448 70.0999L9.75561 73.5584L0.507812 72.2318L0.981242 68.9155C1.03638 68.3548 1.22 67.8144 1.51781 67.3363C1.75396 66.9589 2.09359 66.6574 2.49624 66.4677C2.88802 66.2963 3.32085 66.2415 3.74296 66.3098C4.23601 66.3584 4.69524 66.5826 5.03701 66.9415C5.35866 67.3012 5.57203 67.7447 5.65248 68.2207C5.75639 67.9001 5.94121 67.6118 6.18905 67.3837ZM4.61093 71.6002L4.89499 69.563C4.99234 69.0952 4.9196 68.608 4.68984 68.1891C4.57476 68.0136 4.42105 67.8669 4.2405 67.7602C4.05995 67.6534 3.85736 67.5895 3.64827 67.5732C3.44357 67.5333 3.23255 67.5395 3.03055 67.5914C2.82856 67.6433 2.64065 67.7396 2.48046 67.8733C2.14252 68.2247 1.93625 68.6821 1.89656 69.1682L1.61249 71.1738L4.61093 71.6002ZM8.95076 68.5997C8.82697 68.4049 8.66202 68.2397 8.46753 68.1156C8.27304 67.9916 8.05373 67.9116 7.82505 67.8815C7.59637 67.8514 7.36387 67.8718 7.14393 67.9413C6.92398 68.0108 6.72193 68.1277 6.55201 68.2838C6.17856 68.6428 5.94856 69.1256 5.90499 69.642L5.60514 71.7423L8.85608 72.2003L9.1717 70.0683C9.28387 69.5749 9.22834 69.058 9.01389 68.5997H8.95076Z" fill="#2B3558"/>
<path d="M1.07777 62.538C1.00348 62.5916 0.918164 62.6279 0.82807 62.6443C0.737977 62.6607 0.645369 62.6567 0.556987 62.6328C0.3737 62.5902 0.214778 62.4766 0.115115 62.3169C0.0622125 62.2392 0.026413 62.1512 0.0100888 62.0586C-0.00623544 61.9661 -0.00271978 61.8711 0.0204192 61.78C0.0659897 61.598 0.17877 61.44 0.336051 61.3378C0.508023 61.2676 0.700635 61.2676 0.872607 61.3378C0.963686 61.3581 1.04976 61.3965 1.12568 61.4507C1.2016 61.505 1.26581 61.574 1.31448 61.6537C1.34964 61.736 1.36778 61.8246 1.36778 61.9142C1.36778 62.0038 1.34964 62.0924 1.31448 62.1748C1.27964 62.3195 1.19605 62.4478 1.07777 62.538ZM2.37183 61.7011L11.4618 63.8172L11.1935 65.0016L2.08777 62.8696L2.37183 61.7011Z" fill="#2B3558"/>
<path d="M4.89781 53.0938L5.82889 53.3938L5.0714 55.81L12.962 58.3525L12.599 59.5211L4.70843 56.9786L3.93515 59.4106L2.98828 59.1105L4.89781 53.0938Z" fill="#2B3558"/>
<path d="M7.40468 49.5571L10.2611 50.8204L11.634 47.662L12.5494 48.0726L11.1764 51.231L14.1117 52.526L15.6898 49.0359L16.6209 49.4465L14.5851 54.042L5.98438 50.2361L8.02014 45.6406L8.93546 46.0354L7.40468 49.5571Z" fill="#2B3558"/>
<path d="M18.104 46.0335C17.709 46.3331 17.2397 46.5188 16.7468 46.5704C16.2629 46.6044 15.7797 46.4945 15.358 46.2546L16.0208 45.1334C16.4076 45.3096 16.8456 45.3377 17.2518 45.2123C17.4852 45.1304 17.7002 45.0031 17.8844 44.8378C18.0685 44.6725 18.2182 44.4724 18.3249 44.249C18.6062 43.8383 18.7192 43.3352 18.6405 42.8435C18.6081 42.6337 18.527 42.4344 18.4036 42.2616C18.2803 42.0888 18.1182 41.9474 17.9304 41.8486C17.8006 41.7586 17.6542 41.6954 17.4997 41.6629C17.3452 41.6303 17.1858 41.6291 17.0308 41.6591C16.7384 41.726 16.4639 41.8553 16.226 42.0381C15.9007 42.3 15.5898 42.5794 15.2949 42.8751C14.9384 43.2518 14.5532 43.6003 14.1429 43.9174C13.8053 44.1543 13.4155 44.306 13.0066 44.3596C12.5232 44.3748 12.0451 44.2541 11.6267 44.0113C11.2083 43.7684 10.8663 43.4131 10.6394 42.9857C10.4162 42.5533 10.3335 42.0619 10.4027 41.5801C10.4584 41.0219 10.6362 40.4827 10.9235 40.0009C11.248 39.3055 11.8066 38.7464 12.5016 38.4217C12.8105 38.2777 13.1472 38.2031 13.4879 38.2031C13.8287 38.2031 14.1654 38.2777 14.4743 38.4217L13.8115 39.5746C13.6367 39.5007 13.4488 39.4627 13.2591 39.4627C13.0694 39.4627 12.8816 39.5007 12.7068 39.5746C12.2728 39.7513 11.9151 40.0756 11.6968 40.4905C11.4569 40.8711 11.3565 41.3232 11.4127 41.7697C11.4462 41.9771 11.528 42.1738 11.6513 42.3438C11.7746 42.5139 11.9362 42.6526 12.1229 42.7488C12.3812 42.911 12.69 42.9728 12.9908 42.9225C13.2735 42.8552 13.5377 42.7257 13.7641 42.5435C14.0008 42.354 14.3165 42.0855 14.6952 41.7223C15.0657 41.3484 15.4611 41.0002 15.8788 40.68C16.2128 40.4365 16.6044 40.2842 17.015 40.2379C17.5137 40.1951 18.0126 40.3172 18.4354 40.5853C18.8234 40.8158 19.1402 41.1491 19.3507 41.5486C19.5879 41.983 19.6973 42.4758 19.6663 42.9699C19.6127 43.5286 19.4348 44.0682 19.1455 44.5491C18.9171 45.1175 18.5607 45.6255 18.104 46.0335Z" fill="#2B3558"/>
<path d="M24.3544 23.7529C25.1146 23.4801 25.9392 23.4416 26.7216 23.6423C27.5586 23.8814 28.3197 24.3329 28.9309 24.9531C29.5684 25.5365 30.0418 26.2771 30.3039 27.1008C30.548 27.8661 30.548 28.6885 30.3039 29.4538C30.0145 30.3207 29.5221 31.1059 28.8678 31.7437L26.8478 33.844L20.125 27.3535L22.145 25.2689C22.7493 24.5936 23.5071 24.0737 24.3544 23.7529ZM29.3412 28.3958C29.3129 27.9071 29.1849 27.4293 28.965 26.9921C28.7452 26.5548 28.4382 26.1672 28.063 25.8532C27.7393 25.4693 27.3342 25.1625 26.8772 24.955C26.4201 24.7475 25.9226 24.6445 25.4207 24.6536C24.9189 24.6627 24.4254 24.7836 23.9762 25.0075C23.5269 25.2314 23.1332 25.5526 22.8236 25.948L21.6558 27.164L26.9425 32.2648L28.1103 31.0488C28.4743 30.7079 28.7666 30.2975 28.9699 29.8419C29.1731 29.3863 29.2833 28.8946 29.2939 28.3958H29.3412Z" fill="#2B3558"/>
<path d="M29.6562 19.5181L31.6289 21.9343L34.2643 19.7866L34.8956 20.5762L32.2601 22.7239L34.2801 25.2191L37.2312 22.8187L37.8625 23.5925L33.9645 26.7509L28.0781 19.4865L31.9761 16.3281L32.6073 17.1177L29.6562 19.5181Z" fill="#2B3558"/>
<path d="M39.0945 11.5117L39.6311 12.3329L36.2381 14.5596L37.9583 17.1968L40.72 15.3966L41.2565 16.2177L38.5106 18.0338L40.8147 21.5554L39.7889 22.2187L34.6758 14.4016L39.0945 11.5117Z" fill="#2B3558"/>
<path d="M43.2145 10.36L44.6348 13.1394L47.6648 11.5602L48.1225 12.4445L45.0925 14.0237L46.5759 16.8821L49.9531 15.1449L50.4108 16.0293L45.9447 18.3349L41.668 10.0283L46.1341 7.72266L46.5917 8.60706L43.2145 10.36Z" fill="#2B3558"/>
<path d="M59.4986 12.4443L58.3623 12.8707L51.1819 7.59613L53.77 14.5762L52.618 15.0026L49.3828 6.22223L50.5191 5.81162L57.6995 11.0704L55.1272 4.1061L56.2634 3.67969L59.4986 12.4443Z" fill="#2B3558"/>
<path d="M60.8575 4.60937C61.1033 3.81882 61.5566 3.10878 62.17 2.55324C62.7835 1.9977 63.5347 1.61703 64.3452 1.45096C65.2641 1.23738 66.2258 1.30341 67.1069 1.6405C67.9634 1.96131 68.6863 2.56232 69.1585 3.34602L67.7382 3.64608C67.3952 3.16519 66.9174 2.79693 66.3652 2.58799C65.7847 2.39352 65.1614 2.36618 64.5661 2.50905C63.9765 2.62848 63.4308 2.907 62.988 3.31446C62.5284 3.73714 62.2044 4.28671 62.0569 4.89366C61.8899 5.55175 61.8899 6.24115 62.0569 6.89924C62.1819 7.56432 62.4692 8.18818 62.8933 8.71531C63.269 9.18961 63.773 9.54589 64.3452 9.74179C64.926 9.93459 65.5489 9.96196 66.1443 9.82078C66.7346 9.71305 67.2821 9.43915 67.7224 9.03117C68.1645 8.60915 68.458 8.05504 68.5588 7.45197L69.9949 7.16772C69.8551 8.06302 69.4287 8.88872 68.7797 9.52072C68.0993 10.1724 67.2438 10.6114 66.3179 10.7841C65.512 10.9597 64.6742 10.9216 63.8875 10.6736C63.1091 10.4267 62.415 9.9672 61.8833 9.34698C61.3217 8.70132 60.9454 7.91551 60.7944 7.07297C60.6066 6.25969 60.6283 5.41195 60.8575 4.60937Z" fill="#2B3558"/>
<path d="M73.4823 1.27915L73.719 4.43756L77.112 4.18489L77.1909 5.1956L73.798 5.44828L74.0347 8.60669L77.8222 8.3224V9.33311L72.8195 9.6963L72.1094 0.378994L77.1278 0V0.994907L73.4823 1.27915Z" fill="#2B3558"/>
<path d="M95.2925 10.756L94.2825 9.33475C93.8143 9.7042 93.2781 9.97783 92.7043 10.1401C92.1168 10.2679 91.5086 10.2679 90.9211 10.1401C90.3553 10.0567 89.8158 9.84613 89.3429 9.52425C88.9155 9.23913 88.5765 8.83971 88.3645 8.37141C88.1531 7.8732 88.0981 7.32244 88.2067 6.7922C88.2964 6.18889 88.5853 5.63297 89.0273 5.213C89.5251 4.74188 90.1511 4.42872 90.8264 4.31289C90.6296 3.99226 90.4757 3.64711 90.3687 3.28637C90.2969 2.96928 90.2969 2.64016 90.3687 2.32307C90.4292 1.95632 90.5873 1.61263 90.8264 1.32817C91.0846 1.03402 91.4257 0.82484 91.8048 0.728061C92.231 0.616357 92.6759 0.595175 93.1107 0.665891C93.5456 0.736606 93.9609 0.897668 94.3298 1.13867C94.6303 1.37099 94.8599 1.68279 94.9926 2.03883C95.096 2.41613 95.096 2.81431 94.9926 3.19162L93.7932 3.00212C93.8277 2.84564 93.8301 2.68379 93.8003 2.52635C93.7705 2.36892 93.709 2.21918 93.6196 2.0862C93.5265 1.96483 93.4102 1.86322 93.2774 1.78731C93.1447 1.71139 92.9982 1.66269 92.8464 1.64403C92.5354 1.58396 92.2132 1.64615 91.9468 1.81772C91.826 1.89694 91.7239 2.00155 91.6476 2.12428C91.5713 2.247 91.5226 2.38492 91.505 2.52838C91.459 2.79519 91.4919 3.06963 91.5997 3.31798C91.7609 3.68309 91.9565 4.03208 92.1836 4.36026L94.5034 7.51867L94.7875 7.18701L95.9395 5.8131L97.2336 6.03422L95.8448 7.73974C95.6377 7.99917 95.4164 8.24696 95.182 8.48197L96.9179 10.8981L95.2925 10.756ZM92.4203 9.17682C92.8731 9.03807 93.2922 8.80686 93.6512 8.49777L91.3787 5.33936C90.1793 5.59203 89.5008 6.17633 89.3429 7.10806C89.2999 7.3522 89.31 7.60278 89.3726 7.84263C89.4353 8.08248 89.549 8.30595 89.7059 8.49777C90.0452 8.9224 90.539 9.19498 91.0789 9.25576C91.5261 9.33417 91.9854 9.30715 92.4203 9.17682Z" fill="#2B3558"/>
<path d="M111.892 14.1515L108.168 12.5723L106.59 14.1515L105.406 13.6304L112.208 6.47656L113.502 7.02929L112.871 16.8993L111.687 16.3782L111.892 14.1515ZM111.892 13.1092L112.24 8.10314L108.799 11.7669L111.892 13.1092Z" fill="#2B3558"/>
<path d="M120.005 11.3243L118.427 14.0089L121.362 15.7461L120.841 16.5988L117.922 14.8775L116.344 17.6569L119.626 19.5835L119.121 20.4521L114.781 17.9096L119.516 9.83984L123.84 12.3823L123.335 13.2509L120.005 11.3243Z" fill="#2B3558"/>
<path d="M125.023 24.7314L125.528 20.3412L124.361 19.4568L122.057 22.5047L121.078 21.7783L126.696 14.3086L129.111 16.1247C129.614 16.4785 130.03 16.9431 130.326 17.4828C130.554 17.9254 130.653 18.4236 130.61 18.9199C130.543 19.4097 130.347 19.8729 130.042 20.2622C129.689 20.7672 129.169 21.1309 128.574 21.2887C127.932 21.4551 127.252 21.3762 126.665 21.0676L126.175 25.6157L125.023 24.7314ZM125.023 18.6672L126.46 19.7569C126.661 19.935 126.896 20.0713 127.151 20.1581C127.405 20.2448 127.675 20.2802 127.943 20.2622C128.182 20.2235 128.41 20.1363 128.613 20.0059C128.817 19.8756 128.992 19.7048 129.127 19.5042C129.284 19.3279 129.399 19.1187 129.465 18.8918C129.53 18.665 129.544 18.4263 129.505 18.1934C129.368 17.6684 129.035 17.2162 128.574 16.9301L127.154 15.8404L125.023 18.6672Z" fill="#2B3558"/>
<path d="M129.756 28.1265C129.535 27.3417 129.535 26.511 129.756 25.7262C130.001 24.9025 130.446 24.1525 131.052 23.5434C131.658 22.9343 132.406 22.4851 133.228 22.2361C134.017 22.0151 134.852 22.0151 135.642 22.2361C136.439 22.4612 137.162 22.8914 137.741 23.4837C138.341 24.0652 138.777 24.7953 139.004 25.5998C139.225 26.3846 139.225 27.2154 139.004 28.0002C138.761 28.8237 138.317 29.5731 137.71 30.1801C137.103 30.787 136.355 31.2321 135.532 31.4744C134.747 31.6958 133.917 31.6958 133.133 31.4744C132.337 31.238 131.613 30.8066 131.026 30.2192C130.439 29.6318 130.008 28.9071 129.772 28.1107L129.756 28.1265ZM133.322 30.4006C133.904 30.5721 134.523 30.5721 135.106 30.4006C135.755 30.2007 136.342 29.8362 136.81 29.3425C137.296 28.8657 137.663 28.2816 137.883 27.637C138.041 27.0526 138.041 26.4369 137.883 25.8525C137.713 25.2548 137.393 24.7109 136.952 24.2733C136.518 23.8314 135.973 23.515 135.374 23.3574C134.792 23.1858 134.173 23.1858 133.591 23.3574C132.941 23.565 132.354 23.9345 131.886 24.4312C131.402 24.9002 131.039 25.4802 130.829 26.121C130.654 26.7084 130.654 27.3338 130.829 27.9212C130.995 28.5148 131.312 29.0551 131.749 29.4896C132.186 29.9241 132.728 30.238 133.322 30.4006Z" fill="#2B3558"/>
<path d="M136.75 36.1643C136.615 35.6841 136.615 35.1759 136.75 34.6957C136.894 34.2338 137.181 33.83 137.57 33.5428L138.343 34.5693C138.032 34.8593 137.836 35.2518 137.791 35.6748C137.77 36.179 137.945 36.6717 138.28 37.0487C138.553 37.4625 138.969 37.7606 139.448 37.8857C139.656 37.9339 139.873 37.9333 140.081 37.884C140.289 37.8347 140.483 37.738 140.647 37.6014C140.912 37.4255 141.099 37.1539 141.168 36.8434C141.239 36.5528 141.239 36.2496 141.168 35.959C141.057 35.5559 140.92 35.1603 140.758 34.7746C140.544 34.3004 140.37 33.8092 140.237 33.306C140.135 32.9071 140.135 32.4889 140.237 32.09C140.381 31.6152 140.689 31.2068 141.105 30.9372C141.48 30.6383 141.937 30.4619 142.415 30.4318C142.899 30.3979 143.382 30.5078 143.804 30.7477C144.292 31.0115 144.713 31.3843 145.035 31.8373C145.525 32.4347 145.797 33.1808 145.808 33.9535C145.806 34.2945 145.732 34.6312 145.59 34.9415C145.449 35.2518 145.243 35.5286 144.987 35.7537L144.182 34.6799C144.314 34.5468 144.418 34.3889 144.488 34.2155C144.559 34.042 144.594 33.8564 144.593 33.6692C144.592 33.198 144.431 32.7411 144.135 32.3742C143.876 32.0045 143.497 31.7364 143.062 31.6162C142.859 31.5694 142.647 31.5708 142.445 31.6202C142.242 31.6695 142.053 31.7655 141.894 31.9005C141.769 31.9832 141.661 32.09 141.577 32.2147C141.493 32.3394 141.434 32.4795 141.405 32.6269C141.334 32.9121 141.334 33.2103 141.405 33.4955C141.484 33.7955 141.626 34.1745 141.815 34.6799C142.019 35.1621 142.187 35.6582 142.32 36.1643C142.422 36.5686 142.422 36.9919 142.32 37.3961C142.168 37.8709 141.863 38.2817 141.452 38.5647C141.086 38.8332 140.657 39.002 140.206 39.0543C139.717 39.0949 139.226 39.0021 138.785 38.7858C138.263 38.5338 137.812 38.1535 137.475 37.6804C137.123 37.236 136.875 36.7179 136.75 36.1643Z" fill="#2B3558"/>
<path d="M147.513 44.3756C146.685 44.0671 146.003 43.4583 145.603 42.6701L144.703 41.0909L141.342 43.0965L140.727 42.0384L148.775 37.3008L150.353 39.9065C150.805 40.6312 150.968 41.499 150.811 42.3384C150.733 42.698 150.578 43.0365 150.358 43.3308C150.137 43.6251 149.856 43.8684 149.532 44.044C149.236 44.2329 148.904 44.3597 148.556 44.4167C148.209 44.4737 147.854 44.4598 147.513 44.3756ZM147.623 43.2228C147.847 43.2859 148.081 43.2988 148.31 43.2605C148.54 43.2223 148.758 43.134 148.949 43.0017C149.943 42.4174 150.101 41.5488 149.438 40.4118L148.522 38.8326L145.571 40.5697L146.471 42.149C146.71 42.648 147.135 43.0335 147.655 43.2228H147.623Z" fill="#2B3558"/>
<path d="M148.949 53.5996L147.37 49.8569L145.177 49.9832L144.672 48.7988L154.535 48.2461L155.087 49.5411L147.875 56.3001L147.37 55.1156L148.949 53.5996ZM149.722 52.889L153.399 49.4779L148.396 49.7937L149.722 52.889Z" fill="#2B3558"/>
<path d="M155.544 56.6606C156.334 56.8575 157.054 57.2671 157.627 57.845C158.207 58.4384 158.62 59.1735 158.827 59.977C159.095 60.8785 159.095 61.839 158.827 62.7406C158.549 63.6095 157.994 64.3637 157.249 64.8883L156.87 63.467C157.332 63.1096 157.673 62.6191 157.848 62.0615C158.014 61.4675 158.014 60.8394 157.848 60.2454C157.705 59.6475 157.399 59.1009 156.964 58.6662C156.53 58.241 155.982 57.9504 155.386 57.8292C154.721 57.6963 154.034 57.7168 153.378 57.8891C152.722 58.0615 152.113 58.3813 151.599 58.8241C151.139 59.2468 150.815 59.7964 150.668 60.4034C150.512 60.9976 150.511 61.622 150.666 62.2166C150.821 62.8111 151.126 63.3559 151.551 63.7986C151.997 64.1894 152.544 64.4467 153.13 64.5409L153.493 65.9464C152.59 65.8694 151.74 65.4911 151.078 64.8725C150.389 64.2332 149.905 63.4031 149.689 62.4879C149.468 61.687 149.468 60.841 149.689 60.0401C149.89 59.2571 150.305 58.546 150.889 57.9872C151.505 57.3905 152.267 56.9658 153.098 56.7554C153.893 56.5196 154.734 56.487 155.544 56.6606Z" fill="#2B3558"/>
<path d="M159.521 69.1861L156.365 69.5809L156.807 72.9604L155.813 73.0867L155.371 69.723L152.215 70.1336L152.704 73.9079L151.71 74.0343L151.062 69.044L160.326 67.8438L160.973 72.8341L159.979 72.9604L159.521 69.1861Z" fill="#2B3558"/>
<path d="M154.818 93.6005C154.562 93.8549 154.248 94.0444 153.903 94.1532C153.557 94.2637 153.19 94.296 152.83 94.248C152.379 94.199 151.955 94.0114 151.615 93.711C151.257 93.4041 150.999 92.9972 150.873 92.5424C150.712 92.0048 150.68 91.4368 150.778 90.8842L151.268 87.4258L160.5 88.7524L160.042 92.0687C159.975 92.629 159.786 93.1679 159.49 93.6479C159.264 94.0225 158.931 94.3215 158.535 94.5071C158.139 94.6926 157.697 94.7563 157.265 94.6901C156.771 94.6333 156.312 94.404 155.97 94.0427C155.648 93.6856 155.439 93.2402 155.371 92.7635C155.264 93.0867 155.074 93.3757 154.818 93.6005ZM156.397 89.384L156.097 91.4212C156.003 91.8908 156.081 92.3787 156.318 92.7951C156.429 92.9702 156.58 93.1169 156.758 93.2238C156.936 93.3307 157.136 93.3948 157.343 93.411C157.548 93.452 157.759 93.4464 157.962 93.3944C158.164 93.3425 158.352 93.2456 158.511 93.1109C158.855 92.7634 159.062 92.3038 159.095 91.816L159.395 89.8104L156.397 89.384ZM152.057 92.3845C152.177 92.574 152.34 92.7335 152.531 92.8512C152.722 92.9688 152.938 93.0414 153.161 93.0636C153.391 93.1021 153.625 93.0895 153.849 93.0267C154.073 92.9639 154.28 92.8525 154.455 92.7004C154.823 92.3373 155.052 91.8567 155.103 91.3422L155.402 89.2419L152.136 88.7839L151.836 90.9159C151.712 91.4102 151.774 91.9326 152.009 92.3845H152.057Z" fill="#2B3558"/>
<path d="M159.931 98.4479C160.005 98.3944 160.091 98.3581 160.181 98.3417C160.271 98.3253 160.363 98.3292 160.452 98.3532C160.635 98.3957 160.794 98.5093 160.894 98.669C160.946 98.7467 160.982 98.8347 160.999 98.9273C161.015 99.0199 161.011 99.1149 160.988 99.206C160.968 99.2971 160.93 99.3832 160.875 99.4592C160.821 99.5351 160.752 99.5994 160.673 99.6481C160.501 99.7184 160.308 99.7184 160.136 99.6481C160.046 99.6296 159.962 99.5917 159.888 99.5371C159.815 99.4826 159.754 99.4127 159.71 99.3323C159.656 99.2579 159.62 99.1726 159.604 99.0824C159.587 98.9923 159.591 98.8996 159.615 98.8112C159.67 98.654 159.783 98.5239 159.931 98.4479ZM158.653 99.2849L149.547 97.1688L149.831 95.9844L158.921 98.1005L158.653 99.2849Z" fill="#2B3558"/>
<path d="M156.127 107.892L155.18 107.592L155.953 105.176L148.062 102.633L148.425 101.48L156.316 104.007L157.089 101.575L158.036 101.875L156.127 107.892Z" fill="#2B3558"/>
<path d="M153.618 111.43L150.809 110.245L149.436 113.404L148.505 112.993L149.894 109.835L146.943 108.524L145.365 112.014L144.449 111.603L146.469 107.008L155.023 110.782L153.003 115.378L152.072 114.983L153.618 111.43Z" fill="#2B3558"/>
<path d="M142.919 114.982C143.315 114.684 143.784 114.499 144.276 114.445C144.76 114.407 145.245 114.517 145.665 114.761L145.002 115.882C144.621 115.707 144.188 115.679 143.787 115.803C143.55 115.882 143.332 116.008 143.145 116.174C142.958 116.339 142.806 116.541 142.698 116.766C142.424 117.18 142.312 117.68 142.383 118.172C142.415 118.382 142.496 118.581 142.619 118.754C142.743 118.926 142.905 119.068 143.093 119.167C143.356 119.345 143.679 119.413 143.992 119.356C144.29 119.292 144.571 119.163 144.813 118.977C145.132 118.714 145.438 118.435 145.728 118.14C146.086 117.759 146.477 117.41 146.896 117.098C147.226 116.859 147.612 116.707 148.016 116.656C148.512 116.618 149.006 116.745 149.421 117.019C149.84 117.251 150.181 117.603 150.399 118.03C150.607 118.467 150.689 118.954 150.636 119.435C150.567 119.993 150.384 120.53 150.1 121.014C149.775 121.71 149.216 122.269 148.521 122.593C148.212 122.737 147.876 122.812 147.535 122.812C147.194 122.812 146.858 122.737 146.549 122.593L147.227 121.441C147.399 121.515 147.585 121.553 147.772 121.553C147.959 121.553 148.144 121.515 148.316 121.441C148.731 121.25 149.078 120.938 149.311 120.546C149.545 120.155 149.655 119.701 149.626 119.246C149.586 119.038 149.5 118.843 149.375 118.673C149.249 118.504 149.087 118.365 148.9 118.266C148.648 118.104 148.344 118.042 148.048 118.093C147.759 118.157 147.489 118.286 147.259 118.472C147.022 118.661 146.722 118.93 146.344 119.293C145.977 119.671 145.582 120.02 145.16 120.335C144.82 120.579 144.423 120.731 144.008 120.777C143.514 120.828 143.017 120.705 142.603 120.43C142.211 120.2 141.888 119.867 141.672 119.467C141.435 119.032 141.326 118.539 141.357 118.045C141.412 117.487 141.59 116.948 141.877 116.466C142.117 115.904 142.472 115.398 142.919 114.982Z" fill="#2B3558"/>
<path d="M136.608 137.232C135.847 137.505 135.023 137.543 134.241 137.342C133.405 137.099 132.645 136.648 132.031 136.032C131.399 135.444 130.926 134.705 130.658 133.884C130.421 133.117 130.421 132.297 130.658 131.531C130.951 130.666 131.443 129.881 132.094 129.241L134.114 127.141L140.837 133.631L138.817 135.716C138.213 136.391 137.455 136.911 136.608 137.232ZM131.621 132.589C131.604 133.359 131.827 134.116 132.259 134.754C132.692 135.392 133.312 135.879 134.034 136.148C134.755 136.417 135.543 136.455 136.287 136.256C137.031 136.057 137.695 135.63 138.186 135.037L139.354 133.821L134.067 128.72L132.899 129.936C132.526 130.273 132.225 130.681 132.014 131.137C131.802 131.593 131.685 132.087 131.668 132.589H131.621Z" fill="#2B3558"/>
<path d="M131.351 141.483L129.378 139.051L126.743 141.199L126.111 140.409L128.747 138.261L126.727 135.766L123.776 138.167L123.145 137.393L127.042 134.234L132.929 141.499L129.031 144.657L128.4 143.868L131.351 141.483Z" fill="#2B3558"/>
<path d="M121.912 149.473L121.375 148.651L124.768 146.425L123.048 143.787L120.287 145.588L119.75 144.767L122.512 142.951L120.208 139.429L121.218 138.766L126.331 146.583L121.912 149.473Z" fill="#2B3558"/>
<path d="M117.81 150.623L116.374 147.844L113.344 149.423L112.886 148.539L115.916 146.96L114.432 144.101L111.055 145.854L110.598 144.954L115.064 142.648L119.356 150.955L114.89 153.261L114.432 152.376L117.81 150.623Z" fill="#2B3558"/>
<path d="M101.508 148.539L102.644 148.112L109.825 153.403L107.252 146.422L108.388 145.996L111.639 154.776L110.487 155.203L103.323 149.928L105.895 156.893L104.743 157.319L101.508 148.539Z" fill="#2B3558"/>
<path d="M100.137 156.374C99.897 157.168 99.4456 157.882 98.8312 158.438C98.2167 158.995 97.4623 159.373 96.649 159.533C95.7302 159.746 94.7685 159.68 93.8873 159.343C93.034 159.017 92.3126 158.417 91.8358 157.638L93.2719 157.338C93.6085 157.818 94.0812 158.187 94.629 158.396C95.2148 158.573 95.8359 158.6 96.4346 158.473C97.0333 158.346 97.5903 158.07 98.0536 157.669C98.5002 157.268 98.8232 156.748 98.9847 156.169C99.1517 155.506 99.1517 154.811 98.9847 154.148C98.865 153.484 98.5831 152.86 98.164 152.332C97.7825 151.864 97.2805 151.509 96.7122 151.305C96.1187 151.139 95.4909 151.139 94.8973 151.305C94.307 151.413 93.7596 151.687 93.3192 152.095C92.8973 152.5 92.606 153.023 92.4828 153.595L91.0625 153.879C91.1935 152.985 91.6149 152.158 92.2619 151.526C92.9423 150.875 93.7979 150.436 94.7238 150.263C95.5347 150.084 96.3783 150.123 97.1698 150.373C97.9387 150.631 98.6251 151.089 99.1583 151.7C99.7167 152.35 100.097 153.133 100.263 153.974C100.413 154.773 100.369 155.596 100.137 156.374Z" fill="#2B3558"/>
<path d="M87.4955 159.706L87.2587 156.548L83.8658 156.801V155.79L87.2587 155.537L87.0063 152.379L83.2188 152.663V151.668L88.2372 151.289L88.9315 160.622L83.9289 160.985L83.85 159.991L87.4955 159.706Z" fill="#2B3558"/>
<path d="M65.7184 150.228L66.7284 151.65C67.1991 151.284 67.7346 151.011 68.3065 150.844C68.8994 150.716 69.5128 150.716 70.1056 150.844C70.6712 150.928 71.2106 151.139 71.6837 151.46C72.1154 151.74 72.4555 152.141 72.6622 152.613C72.8759 153.145 72.9285 153.728 72.8135 154.289C72.6984 154.851 72.4208 155.366 72.0151 155.771C71.5088 156.239 70.8789 156.551 70.2003 156.671C70.4036 156.989 70.5579 157.335 70.658 157.698C70.7217 158.016 70.7217 158.343 70.658 158.661C70.5939 159.036 70.4228 159.385 70.1652 159.665C69.9076 159.946 69.5745 160.145 69.2061 160.24C68.7799 160.352 68.335 160.373 67.9001 160.303C67.4653 160.232 67.05 160.071 66.6811 159.83C66.3806 159.597 66.151 159.286 66.0183 158.93C65.9149 158.552 65.9149 158.154 66.0183 157.777L67.2176 157.966C67.1781 158.119 67.1721 158.278 67.1998 158.433C67.2276 158.587 67.2886 158.735 67.3786 158.864C67.4686 158.993 67.5854 159.101 67.7211 159.18C67.8567 159.26 68.008 159.309 68.1645 159.324C68.4755 159.385 68.7977 159.322 69.064 159.151C69.1872 159.074 69.291 158.97 69.3676 158.847C69.4443 158.724 69.4916 158.584 69.5059 158.44C69.5519 158.173 69.519 157.899 69.4112 157.65C69.2499 157.285 69.0544 156.936 68.8273 156.608L66.5233 153.45L66.2234 153.781L65.0872 155.155L63.7773 154.95L65.1661 153.245C65.3712 152.992 65.5922 152.755 65.8289 152.486L64.093 150.07L65.7184 150.228ZM68.6379 151.886C68.1849 152.025 67.7657 152.256 67.407 152.565L69.6795 155.724C70.8789 155.471 71.5417 154.887 71.6995 153.955C71.7447 153.711 71.7357 153.46 71.6729 153.22C71.6102 152.98 71.4953 152.756 71.3365 152.565C70.9972 152.141 70.5035 151.868 69.9636 151.807C69.5216 151.729 69.0675 151.756 68.6379 151.886Z" fill="#2B3558"/>
<path d="M49.1141 146.834L52.8542 148.413L54.4323 146.834L55.6001 147.355L48.7353 154.462L47.457 153.909L48.0725 144.039L49.2561 144.56L49.1141 146.834ZM49.0352 147.877L48.7038 152.883L52.1283 149.219L49.0352 147.877Z" fill="#2B3558"/>
<path d="M41.0026 149.725L42.5808 147.041L39.6613 145.319L40.1662 144.451L43.1016 146.172L44.6797 143.393L41.3972 141.466L41.9022 140.598L46.242 143.156L41.5077 151.21L37.1836 148.604L37.6886 147.736L41.0026 149.725Z" fill="#2B3558"/>
<path d="M36.0013 136.255L35.4805 140.646L36.6641 141.53L38.9523 138.482L39.9308 139.209L34.3127 146.678L31.8981 144.862C31.3989 144.508 30.9884 144.043 30.6988 143.504C30.4557 143.067 30.3564 142.564 30.4147 142.067C30.4697 141.577 30.6611 141.112 30.967 140.725C31.3196 140.22 31.8396 139.856 32.4347 139.698C33.0819 139.534 33.7669 139.612 34.36 139.919L34.8334 135.371L36.0013 136.255ZM36.0013 142.32L34.5652 141.23C34.1544 140.876 33.6228 140.695 33.0817 140.725C32.8447 140.762 32.6182 140.848 32.417 140.979C32.2157 141.109 32.0443 141.281 31.9139 141.483C31.7629 141.663 31.65 141.872 31.5822 142.097C31.5144 142.323 31.493 142.56 31.5194 142.793C31.6564 143.318 31.9897 143.771 32.4505 144.057L33.8866 145.146L36.0013 142.32Z" fill="#2B3558"/>
<path d="M31.2495 132.857C31.4707 133.642 31.4707 134.473 31.2495 135.258C31.0222 136.092 30.5753 136.85 29.9554 137.453C29.3521 138.064 28.6022 138.51 27.7776 138.748C26.9933 138.969 26.1631 138.969 25.3788 138.748C24.5766 138.525 23.8472 138.095 23.2642 137.5C22.6657 136.92 22.2349 136.189 22.0174 135.384C21.7963 134.599 21.7963 133.768 22.0174 132.984C22.2598 132.158 22.7065 131.406 23.3161 130.799C23.9258 130.192 24.6786 129.748 25.5051 129.509C26.2841 129.289 27.1091 129.289 27.8881 129.509C28.692 129.736 29.4216 130.172 30.0027 130.773C30.5923 131.347 31.022 132.066 31.2495 132.857ZM27.7145 130.583C27.1275 130.409 26.5024 130.409 25.9154 130.583C25.272 130.797 24.6881 131.159 24.211 131.641C23.724 132.114 23.3609 132.7 23.1537 133.347C22.9823 133.929 22.9823 134.549 23.1537 135.131C23.3104 135.735 23.6329 136.282 24.0848 136.711C24.5184 137.156 25.0633 137.478 25.6629 137.642C26.2458 137.808 26.8633 137.808 27.4462 137.642C28.0925 137.435 28.6778 137.072 29.1506 136.584C29.6365 136.107 30.004 135.523 30.2237 134.879C30.3984 134.291 30.4084 133.666 30.2525 133.073C30.0967 132.48 29.781 131.941 29.3399 131.515C28.8947 131.06 28.332 130.737 27.7145 130.583Z" fill="#2B3558"/>
<path d="M24.2614 124.821C24.3961 125.301 24.3961 125.809 24.2614 126.29C24.1177 126.748 23.8367 127.15 23.4565 127.443L22.6675 126.416C22.9808 126.128 23.1774 125.734 23.2198 125.311C23.2424 124.809 23.0731 124.318 22.7464 123.937C22.4637 123.526 22.0441 123.229 21.5628 123.1C21.3545 123.052 21.1379 123.052 20.9299 123.101C20.7218 123.151 20.528 123.247 20.3634 123.384C20.2322 123.469 20.1198 123.581 20.0329 123.711C19.9461 123.841 19.8867 123.988 19.8584 124.142C19.7875 124.432 19.7875 124.736 19.8584 125.026C19.9763 125.429 20.1186 125.825 20.2845 126.211C20.4874 126.688 20.6562 127.179 20.7895 127.679C20.8998 128.077 20.8998 128.498 20.7895 128.895C20.6454 129.37 20.3379 129.779 19.9215 130.048C19.5486 130.35 19.0905 130.527 18.6117 130.554C18.1274 130.593 17.6425 130.483 17.223 130.238C16.7405 129.965 16.321 129.594 15.992 129.148C15.5086 128.547 15.2368 127.803 15.2188 127.032C15.2208 126.691 15.295 126.354 15.4364 126.044C15.5779 125.734 15.7834 125.457 16.0394 125.232L16.8442 126.306C16.58 126.575 16.4326 126.938 16.4339 127.316C16.4324 127.791 16.6003 128.25 16.9073 128.611C17.1601 128.987 17.542 129.257 17.9805 129.369C18.1839 129.415 18.395 129.413 18.5975 129.363C18.8 129.314 18.9885 129.219 19.1483 129.085C19.3948 128.911 19.5689 128.652 19.6375 128.358C19.6999 128.072 19.6999 127.776 19.6375 127.49C19.6375 127.206 19.4166 126.811 19.2272 126.321C19.033 125.83 18.8644 125.33 18.7222 124.821C18.62 124.417 18.62 123.994 18.7222 123.589C18.8798 123.117 19.1839 122.708 19.5901 122.421C19.958 122.155 20.3868 121.987 20.8369 121.931C21.3309 121.891 21.8268 121.983 22.273 122.2C22.7901 122.46 23.2388 122.839 23.5828 123.305C23.911 123.758 24.1421 124.274 24.2614 124.821Z" fill="#2B3558"/>
<path d="M13.511 116.562C14.3371 116.867 15.0149 117.478 15.4047 118.268L16.3201 119.847L19.6657 117.873L20.2969 118.931L12.2485 123.669L10.6704 121.063C10.1726 120.345 9.96929 119.463 10.1023 118.599C10.1802 118.24 10.3348 117.901 10.5554 117.607C10.776 117.313 11.0575 117.069 11.3805 116.894C11.6922 116.691 12.0432 116.557 12.4103 116.5C12.7775 116.443 13.1526 116.464 13.511 116.562ZM13.4005 117.715C13.1739 117.656 12.9374 117.645 12.7064 117.683C12.4753 117.721 12.2548 117.807 12.0591 117.936C11.0649 118.52 10.9071 119.389 11.5857 120.526L12.4852 122.105L15.4521 120.368L14.5368 118.789C14.2924 118.322 13.8894 117.958 13.4005 117.762V117.715Z" fill="#2B3558"/>
<path d="M12.0606 107.388L13.6387 111.131L15.8323 111.004L16.3531 112.189L6.48985 112.741L5.9375 111.446L13.1337 104.688L13.6387 105.872L12.0606 107.388ZM11.2873 108.099L7.62609 111.51L12.613 111.194L11.2873 108.099Z" fill="#2B3558"/>
<path d="M5.52803 104.321C4.73539 104.132 4.01287 103.721 3.44491 103.137C2.8315 102.499 2.39861 101.71 2.19062 100.849C1.98263 99.989 2.00703 99.0888 2.26132 98.2411C2.54934 97.3774 3.1014 96.6261 3.83944 96.0934L4.21819 97.5147C3.76416 97.8764 3.42885 98.3659 3.25553 98.9202C3.07786 99.5125 3.07786 100.144 3.25553 100.736C3.41072 101.333 3.72109 101.878 4.15506 102.315C4.5896 102.741 5.13758 103.031 5.73318 103.152C6.39609 103.284 7.08026 103.263 7.73377 103.091C8.38728 102.918 8.99297 102.599 9.50489 102.158C9.96909 101.739 10.294 101.188 10.436 100.578C10.6016 99.9843 10.6016 99.3563 10.436 98.7623C10.2934 98.1641 9.98744 97.6173 9.55223 97.1831C9.11548 96.7757 8.56495 96.5112 7.97411 96.425L7.59537 95.0195C8.50146 95.1002 9.35568 95.4777 10.0257 96.0934C10.709 96.7374 11.1913 97.5656 11.4144 98.478C11.6287 99.2798 11.6287 100.124 11.4144 100.926C11.202 101.707 10.7821 102.417 10.1993 102.979C9.58525 103.578 8.82263 104.004 7.9899 104.211C7.19341 104.464 6.34402 104.502 5.52803 104.321Z" fill="#2B3558"/>
<path d="M1.48733 91.8327L4.64358 91.4379L4.21749 88.0584L5.2117 87.932L5.62202 91.2958L8.77826 90.8694L8.28905 87.0951L9.28326 86.9688L9.9303 91.959L0.65093 93.1592L0.00390625 88.1689L0.998119 88.0426L1.48733 91.8327Z" fill="#2B3558"/>
<g clip-path="url(#clip0_6354_1098)">
<path d="M94.957 70.5957C93.7098 68.383 91.3658 67 88.8068 67C87.194 67 85.6242 67.5532 84.377 68.5745C84.1834 68.4681 83.9684 68.4043 83.7318 68.4043C82.9362 68.4043 82.2911 69.0426 82.2911 69.8298C82.2911 70.1702 82.4201 70.4681 82.6136 70.7234C82.0975 71.7234 81.7965 72.8298 81.7965 73.9574V74.383C81.2159 74.3404 80.6137 74.2979 80.0116 74.2979C79.4095 74.2979 78.8289 74.3191 78.2268 74.383V73.9574C78.2268 70.1064 75.0657 67 71.1949 67C68.6359 67 66.292 68.383 65.0448 70.5957C64.9587 70.766 65.0017 70.9787 65.1308 71.0851C65.2813 71.2128 65.4963 71.2128 65.6469 71.0851C66.55 70.3617 67.6468 69.9787 68.808 69.9787C69.6681 69.9787 70.5068 70.1915 71.2379 70.5957C71.0659 70.8723 70.9584 71.2128 70.9584 71.5532C70.9584 72.617 71.8186 73.4681 72.8938 73.4681C73.1303 73.4681 73.3668 73.4255 73.5604 73.3404C73.7539 73.8723 73.8399 74.4255 73.8399 74.9787V75.1489C71.754 75.7872 69.7542 76.7447 67.9263 78.0213C67.9048 78.0426 67.9048 78.0426 67.8833 78.0638C67.2382 78.5106 66.7006 79.1277 66.3995 79.8511C66.335 80 66.378 80.1702 66.4855 80.2979C66.5285 80.3404 66.5715 80.3617 66.593 80.4043C67.3672 81.0851 68.3349 81.4468 69.3456 81.4468C69.6251 81.4468 69.9262 81.4255 70.2057 81.3617C70.7648 81.234 71.3025 81.0213 71.7325 80.7234C71.754 80.7021 71.797 80.6809 71.8616 80.6383C72.1841 80.4043 72.4852 80.1064 72.7217 79.766L73.8399 83.4255V83.5319C73.8399 84.2128 74.098 84.8298 74.5066 85.3191L75.6678 88.9574C76.2914 90.7872 78.0332 92 79.9686 92H79.9901C81.947 91.9787 83.6888 90.7447 84.2909 88.8936L85.3446 85.4043C85.8177 84.9149 86.0973 84.234 86.0973 83.5106V83.4043L87.2155 79.7447C87.4521 80.0638 87.7531 80.3617 88.0972 80.617C88.1187 80.6383 88.1617 80.6596 88.1832 80.6809C88.6348 81 89.1509 81.2128 89.7315 81.3404C90.011 81.4043 90.3121 81.4255 90.5917 81.4255C91.6023 81.4255 92.57 81.0638 93.3442 80.383C93.3872 80.3617 93.4087 80.3191 93.4302 80.2979C93.5592 80.1915 93.6022 80 93.5377 79.8511C93.2152 79.1064 92.6991 78.5106 92.0539 78.0638C92.0324 78.0426 92.0324 78.0426 92.0109 78.0213C90.1831 76.7447 88.1832 75.7872 86.0973 75.1489V74.9787C86.0973 72.2128 88.3767 69.9787 91.1508 69.9787C92.312 69.9787 93.4087 70.3617 94.3119 71.0851C94.4624 71.2128 94.6774 71.2128 94.828 71.0851C95 70.9787 95.043 70.766 94.957 70.5957ZM83.7103 69.2128C84.0544 69.2128 84.334 69.4894 84.334 69.8298C84.334 70.1702 84.0544 70.4468 83.7103 70.4468C83.3663 70.4468 83.0867 70.1702 83.0867 69.8298C83.0867 69.4894 83.3663 69.2128 83.7103 69.2128ZM71.797 71.5745C71.797 70.9574 72.3131 70.4468 72.9368 70.4468C73.5604 70.4468 74.0765 70.9574 74.0765 71.5745C74.0765 72.1915 73.5604 72.7021 72.9368 72.7021C72.3131 72.7021 71.797 72.1915 71.797 71.5745ZM74.2915 72.9362C74.6356 72.5957 74.8506 72.1064 74.8506 71.5957C74.8506 70.5319 73.9905 69.6809 72.9153 69.6809C72.5067 69.6809 72.1196 69.8085 71.797 70.0426C70.8939 69.5106 69.8617 69.234 68.808 69.234C68.1413 69.234 67.4962 69.3404 66.8726 69.5532C68.0123 68.4681 69.5606 67.8298 71.1734 67.8298C74.5926 67.8298 77.3881 70.5957 77.3881 73.9787V74.4468C76.4634 74.5532 75.5603 74.7234 74.6571 74.9574C74.6786 74.2553 74.5496 73.5745 74.2915 72.9362ZM70.0767 80.5957C69.195 80.766 68.3134 80.617 67.5822 80.1277C67.9048 79.9574 68.2704 79.8298 68.6359 79.7447C69.5391 79.5532 70.4638 79.6809 71.2809 80.0851C70.9369 80.3404 70.5283 80.5106 70.0767 80.5957ZM71.9476 79.5319C70.9154 78.9362 69.6896 78.7234 68.5069 78.9787C68.3134 79.0213 68.1198 79.0851 67.9263 79.1277C68.3779 78.6809 68.9585 78.3617 69.6251 78.234C70.6143 78.0426 71.6465 78.2766 72.4207 78.8936C72.2701 79.1277 72.1196 79.3404 71.9476 79.5319ZM85.1296 83.5745C85.1296 84.5532 84.3124 85.3617 83.3233 85.3617H76.7C75.7108 85.3617 74.8936 84.5532 74.8936 83.5745V79.3404C74.8936 78.3617 75.7108 77.5532 76.7 77.5532H83.3233C84.3124 77.5532 85.1296 78.3617 85.1296 79.3404V83.5745ZM80.0116 91.2553H79.9901C78.3773 91.2553 76.958 90.2553 76.4419 88.7447L75.6248 86.1489C75.9473 86.2766 76.3129 86.3617 76.6785 86.3617H83.3018C83.6458 86.3617 83.9899 86.2979 84.3125 86.1702L83.5598 88.7021C83.0652 90.2128 81.6459 91.2553 80.0116 91.2553ZM83.3233 76.5532H76.7C75.1517 76.5532 73.8829 77.8085 73.8829 79.3404V80.6809L73.2808 78.6809C73.2808 78.6809 73.2808 78.6596 73.2593 78.6596C73.2378 78.617 73.2378 78.5957 73.2163 78.5532C73.2163 78.5319 73.1948 78.5319 73.1948 78.5106C73.1948 78.5106 73.1948 78.4894 73.1733 78.4894C72.4637 77.8298 71.5605 77.4468 70.6143 77.3617C72.8507 76.1915 75.3022 75.4468 77.8182 75.1702C78.5493 75.1277 79.2805 75.0851 80.0116 75.0851C83.3233 75.0851 86.5274 75.8723 89.4089 77.383C88.4627 77.4468 87.5596 77.8511 86.8499 78.5106C86.8499 78.5106 86.8499 78.5319 86.8284 78.5319C86.8284 78.5532 86.8069 78.5532 86.8069 78.5745C86.7854 78.5957 86.7639 78.6383 86.7639 78.6596C86.7639 78.6596 86.7639 78.6809 86.7424 78.6809L86.1403 80.6809V79.3404C86.1403 77.7872 84.8716 76.5532 83.3233 76.5532ZM90.4196 78.234C91.0647 78.3617 91.6454 78.6809 92.1184 79.1277C91.9249 79.0638 91.7314 79 91.5378 78.9787C90.3336 78.7447 89.1294 78.9362 88.0972 79.5319C87.9251 79.3404 87.7746 79.1277 87.6456 78.8936C88.3982 78.2766 89.4304 78.0426 90.4196 78.234ZM89.925 80.5957C89.4949 80.5106 89.0864 80.3404 88.7208 80.0851C89.538 79.6809 90.4626 79.5532 91.3658 79.7447C91.7529 79.8298 92.0969 79.9574 92.4195 80.1277C91.6884 80.617 90.8067 80.7872 89.925 80.5957ZM91.1938 69.1915C87.9682 69.1915 85.3446 71.766 85.3231 74.9574C84.42 74.7234 83.5168 74.5532 82.5921 74.4468V73.9574C82.5921 73 82.8287 72.0426 83.2587 71.1915C83.4093 71.234 83.5598 71.2766 83.7103 71.2766C84.506 71.2766 85.1511 70.6383 85.1511 69.8511C85.1511 69.5957 85.0866 69.3617 84.9576 69.1489C86.0543 68.2979 87.409 67.8298 88.8068 67.8298C90.4411 67.8298 91.9679 68.4681 93.1076 69.5532C92.5055 69.2979 91.8604 69.1915 91.1938 69.1915ZM83.4308 79.9149C83.4308 80.1915 83.1942 80.4043 82.9362 80.4043H77.0656C76.786 80.4043 76.571 80.1702 76.571 79.9149C76.571 79.6383 76.8075 79.4255 77.0656 79.4255H82.9147C83.2157 79.4255 83.4308 79.6383 83.4308 79.9149ZM82.2481 82.9787C82.2481 83.2553 82.0115 83.4681 81.7535 83.4681H78.2698C77.9902 83.4681 77.7752 83.234 77.7752 82.9787C77.7752 82.7234 78.0117 82.4894 78.2698 82.4894H81.732C82.0115 82.4894 82.2481 82.7021 82.2481 82.9787ZM81.4309 87.7447C81.5814 87.8936 81.5814 88.1489 81.4309 88.3191L80.6352 89.1064C80.4847 89.2553 80.2697 89.3404 80.0546 89.3404C79.8396 89.3404 79.6461 89.2553 79.474 89.1064L78.6784 88.3191C78.5278 88.1702 78.5278 87.9149 78.6784 87.7447C78.8289 87.5957 79.0869 87.5957 79.259 87.7447L80.0546 88.5319L80.8503 87.7447C81.0008 87.5957 81.2589 87.5957 81.4309 87.7447Z" fill="#2B3558"/>
</g>
<defs>
<clipPath id="clip0_6354_1098">
<rect width="30" height="30" fill="white" transform="translate(65.0039 65)"/>
</clipPath>
</defs>
</svg>
